<svg width="53" height="28" viewBox="0 0 53 28" fill="none" xmlns="http://www.w3.org/2000/svg">
<rect width="53" height="28" rx="6" fill="url(#paint0_linear_6800_48570)"/>
<path d="M9.934 9.004H11.264L15.198 19H13.952L12.888 16.2H8.296L7.232 19H6L9.934 9.004ZM8.66 15.234H12.524L10.634 10.236H10.578L8.66 15.234ZM16.2932 9.004H17.4272V19H16.2932V9.004ZM19.3354 9.228H25.1174C24.8748 8.668 24.5948 8.14533 24.2774 7.66L25.3974 7.464C25.7148 8.06133 25.9854 8.64933 26.2094 9.228H31.7254V10.194H19.3354V9.228ZM27.7354 10.614C29.3128 11.8647 30.6148 13.092 31.6414 14.296L30.8994 15.038C30.0034 13.8993 28.7201 12.644 27.0494 11.272L27.7354 10.614ZM28.7994 13.638C28.1274 14.926 27.3108 16.0367 26.3494 16.97C27.8428 18.0527 29.6861 18.874 31.8794 19.434L31.2494 20.372C28.9628 19.7187 27.0728 18.8133 25.5794 17.656C24.0114 18.916 22.1074 19.84 19.8674 20.428L19.2514 19.504C21.4541 18.944 23.2928 18.104 24.7674 16.984C23.7594 16.0693 22.9194 15.0147 22.2474 13.82L23.1154 13.33C23.7221 14.4593 24.5294 15.458 25.5374 16.326C26.5081 15.4113 27.2874 14.38 27.8754 13.232L28.7994 13.638ZM23.9554 11.272C22.8821 12.672 21.5661 13.8853 20.0074 14.912L19.3634 14.058C20.9034 13.0687 22.1914 11.9253 23.2274 10.628L23.9554 11.272ZM35.2674 13.008V8.08H43.8494V13.008H38.3474C38.1141 13.3627 37.8154 13.7407 37.4514 14.142H44.8714C44.8248 15.6447 44.7408 16.858 44.6194 17.782C44.4794 18.706 44.2648 19.3453 43.9754 19.7C43.6768 20.0453 43.1961 20.232 42.5334 20.26H40.7274L40.4614 19.322C41.0214 19.35 41.5534 19.364 42.0574 19.364C42.7388 19.364 43.1914 19.098 43.4154 18.566C43.6301 18.0153 43.7748 16.8393 43.8494 15.038H42.5054C41.3014 17.7167 39.3788 19.49 36.7374 20.358L36.1634 19.518C38.6368 18.734 40.4101 17.2407 41.4834 15.038H39.6354C38.6554 16.606 37.0688 17.824 34.8754 18.692L34.2454 17.922C36.2521 17.1847 37.6988 16.2233 38.5854 15.038H36.4434C35.7341 15.57 34.9314 16.0413 34.0354 16.452L33.4894 15.556C35.1974 14.8747 36.4388 14.0253 37.2134 13.008H35.2674ZM42.8554 12.154V10.95H36.2614V12.154H42.8554ZM36.2614 10.138H42.8554V8.948H36.2614V10.138Z" fill="#0F0F0F"/>
<defs>
<linearGradient id="paint0_linear_6800_48570" x1="-3.11765" y1="-2.36655e-06" x2="62.1524" y2="15.4955" gradientUnits="userSpaceOnUse">
<stop stop-color="#EAFF48"/>
<stop offset="0.389423" stop-color="#2DF5FF"/>
<stop offset="0.875" stop-color="#00FF48"/>
</linearGradient>
</defs>
</svg>
