<svg width="22" height="18" viewBox="0 0 22 18" fill="none" xmlns="http://www.w3.org/2000/svg">
<path d="M12.3536 1.3171C12.3536 1.70695 12.1842 2.0573 11.9146 2.29876V3.95124H16.3049C17.0035 3.95124 17.6735 4.22877 18.1675 4.72277C18.6615 5.21676 18.939 5.88677 18.939 6.58538V15.3659C18.939 16.0645 18.6615 16.7345 18.1675 17.2285C17.6735 17.7225 17.0035 18 16.3049 18H5.76828C5.06967 18 4.39966 17.7225 3.90566 17.2285C3.41167 16.7345 3.13414 16.0645 3.13414 15.3659V6.58538C3.13414 5.88677 3.41167 5.21676 3.90566 4.72277C4.39966 4.22877 5.06967 3.95124 5.76828 3.95124H10.1585V2.29876C9.99477 2.15229 9.87025 1.96719 9.79632 1.76031C9.72238 1.55343 9.70138 1.33134 9.73521 1.11426C9.76904 0.897183 9.85663 0.692017 9.99001 0.517444C10.1234 0.342871 10.2983 0.204438 10.4989 0.114749C10.6994 0.0250607 10.9193 -0.0130338 11.1383 0.00393457C11.3573 0.020903 11.5686 0.0923953 11.753 0.211901C11.9373 0.331408 12.0889 0.495131 12.1938 0.688163C12.2987 0.881196 12.3536 1.0974 12.3536 1.3171ZM0.5 8.34148H2.25609V13.6098H0.5V8.34148ZM21.5731 8.34148H19.817V13.6098H21.5731V8.34148ZM8.40243 12.2927C8.75173 12.2927 9.08674 12.1539 9.33374 11.9069C9.58073 11.6599 9.7195 11.3249 9.7195 10.9756C9.7195 10.6263 9.58073 10.2913 9.33374 10.0443C9.08674 9.79731 8.75173 9.65855 8.40243 9.65855C8.05312 9.65855 7.71811 9.79731 7.47112 10.0443C7.22412 10.2913 7.08535 10.6263 7.08535 10.9756C7.08535 11.3249 7.22412 11.6599 7.47112 11.9069C7.71811 12.1539 8.05312 12.2927 8.40243 12.2927ZM14.9878 10.9756C14.9878 10.6263 14.849 10.2913 14.602 10.0443C14.355 9.79731 14.02 9.65855 13.6707 9.65855C13.3214 9.65855 12.9864 9.79731 12.7394 10.0443C12.4924 10.2913 12.3536 10.6263 12.3536 10.9756C12.3536 11.3249 12.4924 11.6599 12.7394 11.9069C12.9864 12.1539 13.3214 12.2927 13.6707 12.2927C14.02 12.2927 14.355 12.1539 14.602 11.9069C14.849 11.6599 14.9878 11.3249 14.9878 10.9756Z" fill="#808080"/>
</svg>
