<svg width="21" height="20" viewBox="0 0 21 20" fill="none" xmlns="http://www.w3.org/2000/svg">
<path d="M13.5334 18.3501H6.53345V19.9834H13.5334V18.3501Z" fill="#4DD0E1"/>
<path d="M18.3333 15.8333V10C18.3333 5.66667 15.0417 2.125 10.8333 1.70833V0H9.16667V1.70833C4.95833 2.125 1.66667 5.66667 1.66667 10V15.8333H0V17.5H20V15.8333H18.3333ZM12.1667 10.9167L9.5 14.625L8.16667 13.6667L9.875 11.2917H8.5C8.16667 11.2917 7.91667 11.125 7.75 10.8333C7.58333 10.5417 7.625 10.2083 7.83333 9.95833L10.7083 6L12.0417 6.95833L10.125 9.625H11.4583C11.7917 9.625 12.0417 9.79167 12.2083 10.0833C12.375 10.375 12.375 10.6667 12.1667 10.9167Z" fill="#4DD0E1"/>
</svg>
