<svg width="32" height="32" viewBox="0 0 32 32" fill="none" xmlns="http://www.w3.org/2000/svg">
<circle cx="16" cy="16" r="16" fill="#2E2E2E"/>
<path d="M21.3633 15.6158C21.3387 13.1271 23.3927 11.9341 23.4842 11.8745C22.3298 10.1853 20.5319 9.95439 19.8914 9.92737C18.3612 9.77263 16.906 10.8282 16.1292 10.8282C15.3549 10.8282 14.1563 9.95009 12.8871 9.97342C11.2193 9.99798 9.68114 10.943 8.82271 12.437C7.08988 15.4439 8.37876 19.8982 10.068 22.3371C10.8933 23.5308 11.8776 24.8713 13.1695 24.8234C14.4136 24.7737 14.8845 24.0184 16.3883 24.0184C17.8921 24.0184 18.3152 24.8234 19.6323 24.7988C20.9709 24.7737 21.8195 23.5824 22.6393 22.385C23.5867 21.0004 23.9773 19.6593 24 19.5905C23.9705 19.577 21.3891 18.5884 21.3633 15.6158ZM18.8893 8.31305C19.5752 7.48102 20.0382 6.32662 19.9117 5.17529C18.9237 5.21582 17.7263 5.83355 17.0177 6.66312C16.3816 7.39935 15.8253 8.57463 15.9745 9.70324C17.0773 9.78921 18.2028 9.14262 18.8893 8.31305Z" fill="#DBDBDB"/>
</svg>
