<svg width="20" height="21" viewBox="0 0 20 21" fill="none" xmlns="http://www.w3.org/2000/svg">
<path fill-rule="evenodd" clip-rule="evenodd" d="M6 0.5C2.68629 0.5 0 3.18629 0 6.5V14.5C0 17.8137 2.68629 20.5 6 20.5H14C17.3137 20.5 20 17.8137 20 14.5V6.5C20 3.18629 17.3137 0.5 14 0.5H6ZM4.5 11.5V15.5V16H5H10H15H15.5V15.5V11.5H14.5V15H10H5.5V11.5H4.5ZM10.5 6.70711L12.6464 8.85355L13.3536 8.14645L10.3536 5.14645L10 4.79289L9.64645 5.14645L6.64645 8.14645L7.35355 8.85355L9.5 6.70711V13.5H10.5V6.70711Z" fill="white"/>
</svg>
