<svg width="18" height="18" viewBox="0 0 18 18" fill="none" xmlns="http://www.w3.org/2000/svg">
<circle cx="9" cy="9" r="8.5" stroke="#B8B8B8"/>
<path d="M8.21416 4.93398L8.21289 4.93554C8.06678 5.11395 7.93885 5.35248 7.83093 5.68454L7.82977 5.68812L7.82976 5.68811L7.81145 5.74305C7.69459 6.09943 7.42075 6.3994 7.14006 6.60338C6.85887 6.80772 6.48876 6.97538 6.11428 6.97687L6.11229 6.97688V6.97688H6.05538C5.70623 6.97864 5.43791 7.02687 5.22175 7.1102C4.86561 7.248 4.64073 7.48985 4.54802 7.77641C4.45446 8.06557 4.49415 8.39406 4.70006 8.7119L4.70061 8.71276C4.82597 8.90714 5.01397 9.10276 5.29694 9.30917L5.30489 9.31497L5.30483 9.31504L5.34823 9.34803C5.64933 9.56959 5.84866 9.92178 5.95517 10.2508C6.06225 10.5815 6.10684 10.9855 5.99195 11.3421L5.99041 11.3469L5.99038 11.3469L5.97251 11.4005C5.88372 11.6774 5.84417 11.9093 5.8397 12.1174C5.83283 12.4962 5.95974 12.7366 6.05311 12.8647L8.21416 4.93398ZM8.21416 4.93398C8.45385 4.63886 8.75345 4.5 9.05604 4.5C9.35789 4.5 9.65823 4.63829 9.90246 4.93494M8.21416 4.93398L9.90246 4.93494M12.4667 13.1594C12.6129 12.9587 12.7835 12.6138 12.776 12.1075C12.7723 11.8412 12.7198 11.56 12.6185 11.245M12.4667 13.1594L12.0634 12.8638C12.0633 12.8639 12.0632 12.864 12.0631 12.8641M12.4667 13.1594L12.0626 12.8648C12.0628 12.8646 12.063 12.8644 12.0631 12.8641M12.4667 13.1594C12.1835 13.5456 11.7392 13.7687 11.246 13.7687C10.8035 13.7687 10.3517 13.5981 9.86417 13.2456L9.81542 13.2119M12.0631 12.8641C12.1555 12.7372 12.2817 12.4962 12.2761 12.1149L12.2761 12.1145C12.2732 11.9105 12.233 11.6802 12.1433 11.4005M12.0631 12.8641C11.8766 13.1184 11.5838 13.2687 11.246 13.2687C10.9403 13.2687 10.5891 13.1528 10.1571 12.8405L10.1572 12.8404L10.1488 12.8345L10.1044 12.8038M12.1433 11.4005L12.1442 11.4031L12.6185 11.245M12.1433 11.4005C12.1431 11.3997 12.1428 11.3988 12.1425 11.398L12.6185 11.245M12.1433 11.4005L12.1255 11.3469L12.1239 11.3421L12.1239 11.3421C12.0088 10.985 12.0543 10.5807 12.1615 10.2504C12.2682 9.92156 12.4675 9.56972 12.7672 9.34834M12.6185 11.245L12.5998 11.1887C12.4554 10.7406 12.6879 10.0263 13.0667 9.74875M12.7672 9.34834L12.7641 9.35067L13.0667 9.74875M12.7672 9.34834C12.7685 9.34736 12.7698 9.34639 12.7712 9.34542L13.0667 9.74875M12.7672 9.34834L12.811 9.31504L12.8188 9.30909L12.8189 9.30917C13.1004 9.10383 13.2894 8.90623 13.4157 8.712M13.0667 9.74875L13.1135 9.71313C13.4323 9.48063 13.6685 9.24062 13.8354 8.98375M13.4157 8.712C13.4156 8.71224 13.4154 8.71248 13.4152 8.71273L13.8354 8.98375M13.4157 8.712C13.4159 8.71178 13.416 8.71157 13.4161 8.71136L13.8354 8.98375M13.4157 8.712C13.623 8.39031 13.6622 8.06435 13.5684 7.77822L13.5678 7.77641C13.4751 7.48982 13.2502 7.24795 12.894 7.11016M13.8354 8.98375C14.1148 8.55062 14.1898 8.06875 14.0435 7.6225C13.8992 7.17625 13.5542 6.82938 13.0742 6.64375M12.894 7.11016C12.8941 7.11019 12.8942 7.11023 12.8943 7.11027L13.0742 6.64375M12.894 7.11016C12.8939 7.11014 12.8939 7.11011 12.8938 7.11009L13.0742 6.64375M12.894 7.11016C12.6778 7.02686 12.4096 6.97864 12.0605 6.97688M13.0742 6.64375C12.7873 6.53312 12.4554 6.47875 12.0617 6.47688M12.0617 6.47688V6.97688H12.0605M12.0617 6.47688H12.0035C11.5329 6.475 10.9254 6.03437 10.7792 5.58625M12.0617 6.47688L12.0593 6.97687C12.0597 6.97687 12.0601 6.97687 12.0605 6.97688M12.0605 6.97688H12.0035H12.0015C11.6271 6.97538 11.257 6.80772 10.9758 6.60338C10.6951 6.3994 10.4212 6.09942 10.3044 5.74303M10.3044 5.74303L10.3048 5.74436L10.7792 5.58625M10.3044 5.74303L10.2861 5.68811L10.2856 5.68669C10.1758 5.35392 10.0476 5.11428 9.90246 4.93494M10.3044 5.74303C10.3042 5.74248 10.304 5.74193 10.3038 5.74138L10.7792 5.58625M10.7792 5.58625L9.90246 4.93494M10.1044 12.8038C10.1063 12.8051 10.1081 12.8065 10.11 12.8079L9.81542 13.2119M10.1044 12.8038C9.8143 12.5948 9.41995 12.5038 9.05792 12.5038C8.69234 12.5038 8.29993 12.5982 8.01262 12.803M10.1044 12.8038L10.1 12.8008L9.81542 13.2119M9.81542 13.2119C9.63542 13.0806 9.35229 13.0038 9.05792 13.0038C8.76354 13.0038 8.48042 13.0825 8.30042 13.2119M8.01262 12.803L8.01581 12.8008L8.30042 13.2119M8.01262 12.803L7.96706 12.8345L7.967 12.8344L7.95869 12.8405C7.52675 13.1528 7.17557 13.2687 6.86979 13.2687C6.53076 13.2687 6.23892 13.1193 6.05321 12.8648L5.64917 13.1594C5.93229 13.5475 6.37667 13.7687 6.86979 13.7687C7.31229 13.7687 7.76417 13.5981 8.25167 13.2456M8.01262 12.803C8.01128 12.8039 8.00994 12.8049 8.0086 12.8059L8.30042 13.2119M8.30042 13.2119L8.25167 13.2456M8.25167 13.2456L8.25166 13.2456L8.25167 13.2456Z" stroke="#B8B8B8" stroke-linejoin="round"/>
</svg>
