<svg width="20" height="20" viewBox="0 0 20 20" fill="none" xmlns="http://www.w3.org/2000/svg">
<path d="M1.11108 7.77775L6.66664 2.77775L11.6666 5.55553L18.3333 1.11108" stroke="#DBDBDB" stroke-linecap="round" stroke-linejoin="round"/>
<path d="M5.00008 17.1667H5.50008V16.6667V13.5334C5.50008 13.1468 5.18668 12.8334 4.80008 12.8334H1.86675C1.48015 12.8334 1.16675 13.1468 1.16675 13.5334V16.4667C1.16675 16.8533 1.48015 17.1667 1.86675 17.1667H5.00008Z" stroke="#DBDBDB"/>
<path d="M9.44442 17.1667H9.94442V16.6667V9.08892C9.94442 8.70232 9.63102 8.38892 9.24442 8.38892H6.31108C5.92448 8.38892 5.61108 8.70232 5.61108 9.08892V16.6667V17.1667H6.11108H9.44442Z" stroke="#DBDBDB"/>
<path d="M13.889 17.1666H14.389V16.6666V11.3111C14.389 10.9245 14.0756 10.6111 13.689 10.6111H10.7557C10.3691 10.6111 10.0557 10.9245 10.0557 11.3111V16.6666V17.1666H10.5557H13.889Z" stroke="#DBDBDB"/>
<path d="M14.5 16.6666V17.1666H15H18.1333C18.5199 17.1666 18.8333 16.8532 18.8333 16.4666V6.86663C18.8333 6.48003 18.5199 6.16663 18.1333 6.16663H15.2C14.8134 6.16663 14.5 6.48003 14.5 6.86663V16.6666Z" stroke="#DBDBDB"/>
</svg>
