<svg width="20" height="20" viewBox="0 0 20 20" fill="none" xmlns="http://www.w3.org/2000/svg">
<mask id="path-1-inside-1_1959_5889" fill="white">
<rect x="1.11108" y="1.11108" width="17.7778" height="17.7778" rx="0.2"/>
</mask>
<rect x="1.11108" y="1.11108" width="17.7778" height="17.7778" rx="0.2" stroke="#DBDBDB" stroke-width="2" mask="url(#path-1-inside-1_1959_5889)"/>
<path d="M12.597 5.79903L11.9197 9.06821L15.0119 5.79903H17L13.1449 10.0041L15.2646 14.2011H13.2739L11.5141 11.0274L10.8574 14.1937H9.33299L11.0676 5.79903H12.596H12.597ZM9.2096 5.79903C9.32221 5.79705 9.43261 5.83033 9.52536 5.89422L9.59675 5.94921C9.699 6.04641 9.78002 6.16373 9.83472 6.29376L9.87472 6.39975C9.93443 6.5806 9.9734 6.76764 9.9909 6.95728L9.9999 7.10186C10.0115 7.39892 9.98499 7.69625 9.92091 7.98655L9.72753 8.99542C9.68052 9.23583 9.61185 9.47149 9.52236 9.69953L9.45377 9.86451C9.37216 10.0505 9.27496 10.2292 9.16321 10.3988L9.05082 10.5608C8.95082 10.6939 8.83773 10.8166 8.71326 10.9272L8.58828 11.0272C8.46184 11.1295 8.30587 11.1886 8.14334 11.1957H5.88643L6.27398 9.22899H8.21913L8.48909 7.88016H5.70945L4.46821 14.1935H3L4.66479 5.79883H9.2104L9.2096 5.79903Z" fill="#DBDBDB"/>
</svg>
