<svg width="20" height="20" viewBox="0 0 20 20" fill="none" xmlns="http://www.w3.org/2000/svg">
<rect x="2.83325" y="3.94446" width="5.44444" height="12.1111" rx="0.7" stroke="#DBDBDB"/>
<rect x="11.7222" y="6.16663" width="5.44444" height="7.66667" rx="0.7" stroke="#DBDBDB"/>
<path d="M6.05566 1.11108C6.05566 0.834942 5.83181 0.611084 5.55566 0.611084C5.27952 0.611084 5.05566 0.834942 5.05566 1.11108L6.05566 1.11108ZM5.05566 1.11108L5.05566 4.44442L6.05566 4.44442L6.05566 1.11108L5.05566 1.11108Z" fill="#DBDBDB"/>
<path d="M14.9443 3.33337C14.9443 3.05723 14.7205 2.83337 14.4443 2.83337C14.1682 2.83337 13.9443 3.05723 13.9443 3.33337L14.9443 3.33337ZM13.9443 3.33337L13.9443 6.66671L14.9443 6.66671L14.9443 3.33337L13.9443 3.33337Z" fill="#DBDBDB"/>
<path d="M5.05566 18.8889C5.05566 19.165 5.27952 19.3889 5.55566 19.3889C5.83181 19.3889 6.05566 19.165 6.05566 18.8889L5.05566 18.8889ZM5.05566 15.5555L5.05566 18.8889L6.05566 18.8889L6.05566 15.5555L5.05566 15.5555Z" fill="#DBDBDB"/>
<path d="M13.9443 16.6667C13.9443 16.9428 14.1682 17.1667 14.4443 17.1667C14.7205 17.1667 14.9443 16.9428 14.9443 16.6667L13.9443 16.6667ZM13.9443 13.3334L13.9443 16.6667L14.9443 16.6667L14.9443 13.3334L13.9443 13.3334Z" fill="#DBDBDB"/>
</svg>
