<svg width="20" height="20" viewBox="0 0 20 20" fill="none" xmlns="http://www.w3.org/2000/svg">
<path d="M10.1844 15.9638L10 15.8906L9.81558 15.9638L2.18442 18.9921C1.85617 19.1223 1.5 18.8805 1.5 18.5273V2C1.5 1.72386 1.72386 1.5 2 1.5H18C18.2761 1.5 18.5 1.72386 18.5 2V18.5273C18.5 18.8805 18.1438 19.1223 17.8156 18.9921L10.1844 15.9638Z" stroke="#DBDBDB"/>
<path d="M9.65436 4.59344C9.80865 4.32853 10.1914 4.32853 10.3456 4.59344L11.5277 6.62289C11.5842 6.71993 11.6789 6.78874 11.7887 6.81251L14.0841 7.30957C14.3837 7.37445 14.502 7.73842 14.2977 7.96702L12.7329 9.71836C12.658 9.8021 12.6218 9.91344 12.6332 10.0252L12.8697 12.3618C12.9006 12.6668 12.591 12.8918 12.3105 12.7682L10.1613 11.8211C10.0585 11.7758 9.94147 11.7758 9.8387 11.8211L7.68952 12.7682C7.40898 12.8918 7.09937 12.6668 7.13025 12.3618L7.36684 10.0252C7.37815 9.91344 7.34197 9.8021 7.26715 9.71836L5.7023 7.96702C5.49804 7.73842 5.6163 7.37445 5.91592 7.30957L8.21132 6.81251C8.32107 6.78874 8.41578 6.71993 8.47231 6.62289L9.65436 4.59344Z" stroke="#DBDBDB"/>
</svg>
