<svg width="112" height="21" viewBox="0 0 112 21" fill="none" xmlns="http://www.w3.org/2000/svg">
<path d="M0.7 3.7V1H11.1333V3.7H7.46667V16H4.36667V3.7H0.7ZM15.8438 16.3333C14.8549 16.3333 13.9493 16.0944 13.1271 15.6167C12.3049 15.1389 11.6493 14.4944 11.1604 13.6833C10.6826 12.8722 10.4438 11.9778 10.4438 11C10.4438 10.0111 10.6826 9.11667 11.1604 8.31667C11.6493 7.50556 12.3049 6.86111 13.1271 6.38333C13.9493 5.90556 14.8549 5.66667 15.8438 5.66667C16.8438 5.66667 17.7493 5.90556 18.5604 6.38333C19.3826 6.86111 20.0326 7.50556 20.5104 8.31667C20.9993 9.11667 21.2438 10.0111 21.2438 11C21.2438 11.9778 20.9993 12.8722 20.5104 13.6833C20.0326 14.4944 19.3826 15.1389 18.5604 15.6167C17.7493 16.0944 16.8438 16.3333 15.8438 16.3333ZM15.8438 13.7333C16.3438 13.7333 16.7938 13.6111 17.1938 13.3667C17.6049 13.1222 17.9271 12.7944 18.1604 12.3833C18.4049 11.9611 18.5271 11.5 18.5271 11C18.5271 10.4889 18.4049 10.0278 18.1604 9.61667C17.9271 9.20556 17.6049 8.87778 17.1938 8.63333C16.7938 8.38889 16.3438 8.26667 15.8438 8.26667C15.3438 8.26667 14.8882 8.38889 14.4771 8.63333C14.0771 8.87778 13.7549 9.20556 13.5104 9.61667C13.2771 10.0278 13.1604 10.4889 13.1604 11C13.1604 11.5 13.2771 11.9611 13.5104 12.3833C13.7549 12.7944 14.0771 13.1222 14.4771 13.3667C14.8882 13.6111 15.3438 13.7333 15.8438 13.7333ZM27.4604 16.2667C26.5271 16.2667 25.6826 16.0278 24.9271 15.55C24.1715 15.0722 23.566 14.4389 23.1104 13.65C22.666 12.85 22.4438 11.9667 22.4438 11C22.4438 10.0333 22.666 9.15 23.1104 8.35C23.566 7.55 24.1715 6.91667 24.9271 6.45C25.6826 5.97222 26.5271 5.73333 27.4604 5.73333C27.9937 5.73333 28.4882 5.81111 28.9438 5.96667C29.3993 6.12222 29.8104 6.34444 30.1771 6.63333V-4.76837e-07H33.0771V16H30.5771V15.0167C30.1993 15.4056 29.7438 15.7111 29.2104 15.9333C28.6771 16.1556 28.0938 16.2667 27.4604 16.2667ZM27.7938 13.7167C28.2826 13.7167 28.7271 13.5944 29.1271 13.35C29.5271 13.1056 29.8438 12.7778 30.0771 12.3667C30.3215 11.9556 30.4438 11.5 30.4438 11C30.4438 10.5 30.3215 10.0444 30.0771 9.63333C29.8438 9.22222 29.5271 8.89444 29.1271 8.65C28.7271 8.40556 28.2826 8.28333 27.7938 8.28333C27.3049 8.28333 26.8604 8.40556 26.4604 8.65C26.0604 8.89444 25.7382 9.22222 25.4938 9.63333C25.2604 10.0444 25.1438 10.5 25.1438 11C25.1438 11.5 25.2604 11.9556 25.4938 12.3667C25.7382 12.7778 26.0604 13.1056 26.4604 13.35C26.8604 13.5944 27.3049 13.7167 27.7938 13.7167ZM39.7719 16.2667C38.8497 16.2667 38.0108 16.0278 37.2552 15.55C36.4997 15.0722 35.8941 14.4389 35.4385 13.65C34.9941 12.85 34.7719 11.9667 34.7719 11C34.7719 10.0333 34.9941 9.15 35.4385 8.35C35.8941 7.55 36.4997 6.91667 37.2552 6.45C38.0108 5.97222 38.8497 5.73333 39.7719 5.73333C40.4163 5.73333 41.0052 5.85 41.5385 6.08333C42.0719 6.30556 42.5274 6.61667 42.9052 7.01667V6H45.4052V16H42.9052V14.9833C42.5274 15.3833 42.0719 15.7 41.5385 15.9333C41.0052 16.1556 40.4163 16.2667 39.7719 16.2667ZM40.1219 13.7167C40.6108 13.7167 41.0552 13.5944 41.4552 13.35C41.8552 13.1056 42.1719 12.7778 42.4052 12.3667C42.6497 11.9556 42.7719 11.5 42.7719 11C42.7719 10.5 42.6497 10.0444 42.4052 9.63333C42.1719 9.22222 41.8552 8.89444 41.4552 8.65C41.0552 8.40556 40.6108 8.28333 40.1219 8.28333C39.633 8.28333 39.1885 8.40556 38.7885 8.65C38.3885 8.89444 38.0663 9.22222 37.8219 9.63333C37.5885 10.0444 37.4719 10.5 37.4719 11C37.4719 11.5 37.5885 11.9556 37.8219 12.3667C38.0663 12.7778 38.3885 13.1056 38.7885 13.35C39.1885 13.5944 39.633 13.7167 40.1219 13.7167ZM47.35 21L50.6833 14.3L46.6 6H49.8L51.5667 9.66667C51.7222 10 51.8556 10.3056 51.9667 10.5833C52.0889 10.85 52.1889 11.1111 52.2667 11.3667C52.3556 11.1111 52.4611 10.85 52.5833 10.5833C52.7056 10.3056 52.85 10 53.0167 9.66667L54.8167 6H57.9L50.4667 21H47.35ZM66.8411 16.3C65.7411 16.3 64.7134 16.1 63.7578 15.7C62.8023 15.2889 61.9578 14.7278 61.2245 14.0167C60.5023 13.3056 59.9356 12.4778 59.5245 11.5333C59.1134 10.5889 58.9078 9.57778 58.9078 8.5C58.9078 7.42222 59.1134 6.41111 59.5245 5.46667C59.9356 4.52222 60.5023 3.69444 61.2245 2.98333C61.9578 2.27222 62.8023 1.71667 63.7578 1.31667C64.7134 0.905556 65.7411 0.7 66.8411 0.7C67.83 0.7 68.7634 0.861111 69.6411 1.18333C70.5189 1.50556 71.3023 1.96111 71.9911 2.55L71.1411 6.05C70.73 5.36111 70.1634 4.78333 69.4411 4.31667C68.7189 3.83889 67.8856 3.6 66.9411 3.6C66.0411 3.6 65.2245 3.82222 64.4911 4.26667C63.7689 4.7 63.1967 5.28889 62.7745 6.03333C62.3523 6.76667 62.1411 7.58889 62.1411 8.5C62.1411 9.4 62.3523 10.2222 62.7745 10.9667C63.1967 11.7111 63.7689 12.3056 64.4911 12.75C65.2245 13.1833 66.0411 13.4 66.9411 13.4C67.8745 13.4 68.7023 13.1667 69.4245 12.7C70.1578 12.2222 70.73 11.6389 71.1411 10.95L71.9911 14.45C71.2911 15.0278 70.5023 15.4833 69.6245 15.8167C68.7578 16.1389 67.83 16.3 66.8411 16.3ZM73.6156 16V-4.76837e-07H76.5156V6.75C76.8712 6.39444 77.2767 6.12778 77.7323 5.95C78.199 5.76111 78.6934 5.66667 79.2156 5.66667C79.9267 5.66667 80.5878 5.83889 81.199 6.18333C81.8212 6.51667 82.3212 7.01111 82.699 7.66667C83.0878 8.31111 83.2823 9.09444 83.2823 10.0167V16H80.3823V10.4C80.3823 9.84444 80.2156 9.35 79.8823 8.91667C79.549 8.48333 79.0712 8.26667 78.449 8.26667C77.949 8.26667 77.499 8.43889 77.099 8.78333C76.7101 9.11667 76.5156 9.64444 76.5156 10.3667V16H73.6156ZM89.7875 16.2667C88.8653 16.2667 88.0264 16.0278 87.2708 15.55C86.5153 15.0722 85.9097 14.4389 85.4542 13.65C85.0097 12.85 84.7875 11.9667 84.7875 11C84.7875 10.0333 85.0097 9.15 85.4542 8.35C85.9097 7.55 86.5153 6.91667 87.2708 6.45C88.0264 5.97222 88.8653 5.73333 89.7875 5.73333C90.4319 5.73333 91.0208 5.85 91.5542 6.08333C92.0875 6.30556 92.5431 6.61667 92.9208 7.01667V6H95.4208V16H92.9208V14.9833C92.5431 15.3833 92.0875 15.7 91.5542 15.9333C91.0208 16.1556 90.4319 16.2667 89.7875 16.2667ZM90.1375 13.7167C90.6264 13.7167 91.0708 13.5944 91.4708 13.35C91.8708 13.1056 92.1875 12.7778 92.4208 12.3667C92.6653 11.9556 92.7875 11.5 92.7875 11C92.7875 10.5 92.6653 10.0444 92.4208 9.63333C92.1875 9.22222 91.8708 8.89444 91.4708 8.65C91.0708 8.40556 90.6264 8.28333 90.1375 8.28333C89.6486 8.28333 89.2042 8.40556 88.8042 8.65C88.4042 8.89444 88.0819 9.22222 87.8375 9.63333C87.6042 10.0444 87.4875 10.5 87.4875 11C87.4875 11.5 87.6042 11.9556 87.8375 12.3667C88.0819 12.7778 88.4042 13.1056 88.8042 13.35C89.2042 13.5944 89.6486 13.7167 90.1375 13.7167ZM97.6156 16V6H100.216V7.71667C100.56 7.13889 100.993 6.69444 101.516 6.38333C102.049 6.06111 102.671 5.9 103.382 5.9L104.016 8.46667C103.805 8.4 103.566 8.36667 103.299 8.36667C102.466 8.36667 101.793 8.63889 101.282 9.18333C100.771 9.71667 100.516 10.4833 100.516 11.4833V16H97.6156ZM106.446 16V8.3H104.58V6H106.496V2.66667H109.296V6H111.28V8.3H109.346V16H106.446Z" fill="#DBDBDB"/>
</svg>
