<svg width="20" height="20" viewBox="0 0 20 20" fill="none" xmlns="http://www.w3.org/2000/svg">
<mask id="path-1-inside-1_3806_28420" fill="white">
<rect x="1.11133" y="1.11133" width="17.7778" height="17.7778" rx="0.5"/>
</mask>
<rect x="1.11133" y="1.11133" width="17.7778" height="17.7778" rx="0.5" stroke="#DBDBDB" stroke-width="2" mask="url(#path-1-inside-1_3806_28420)"/>
<path d="M15.2832 6H16.4602L12.9072 9.366L16.9552 13.854H15.7452L12.2802 9.949L11.0592 11.104V13.854H10.1572V6H11.0592V10.081L15.2832 6Z" fill="#DBDBDB"/>
<path d="M3.09961 6H6.31161C8.11561 6 9.01761 6.77 9.01761 8.31C9.01761 9.86467 8.11194 10.642 6.30061 10.642H4.00161V13.854H3.09961V6ZM4.00161 6.781V9.861H6.25661C6.87994 9.861 7.34928 9.73267 7.66461 9.476C7.96528 9.21933 8.11561 8.83067 8.11561 8.31C8.11561 7.77467 7.96161 7.39333 7.65361 7.166C7.35294 6.90933 6.88728 6.781 6.25661 6.781H4.00161Z" fill="#DBDBDB"/>
</svg>
