<svg width="18" height="18" viewBox="0 0 18 18" fill="none" xmlns="http://www.w3.org/2000/svg">
<rect x="1.5" y="0.5" width="15" height="17" rx="1.5" stroke="#B8B8B8"/>
<path d="M13 4.36442C13 4.22883 12.9322 4.16103 12.8644 4.09323C12.7966 4.02544 12.661 3.95764 12.5932 3.95764H10.3559C10.2203 3.95764 10.0847 4.02544 10.0169 4.09323C9.81356 4.29662 9.81356 4.63561 10.0169 4.839C10.0847 4.90679 10.2203 4.97459 10.3559 4.97459H11.3051L9.0678 7.21188L7.98305 6.12713C7.77966 5.92374 7.44068 5.92374 7.23729 6.12713L5.20339 8.16103C5.0678 8.29662 5 8.36442 5 8.50001C5 8.7712 5.20339 9.04239 5.54237 9.04239C5.67797 9.04239 5.81356 8.97459 5.88136 8.90679L7.57627 7.21188L8.66102 8.29662C8.86441 8.50001 9.20339 8.50001 9.40678 8.29662L11.9831 5.72035V6.60171C11.9831 6.7373 12.0508 6.8729 12.1186 6.94069C12.322 7.14408 12.661 7.14408 12.8644 6.94069C12.9322 6.8729 13 6.7373 13 6.60171V4.36442C13 4.43222 13 4.43222 13 4.36442Z" fill="#B8B8B8"/>
<path d="M5 12C5.8 12 10.6667 12 13 12" stroke="#B8B8B8" stroke-linecap="round"/>
</svg>
