<svg width="24" height="24" viewBox="0 0 24 24" fill="none" xmlns="http://www.w3.org/2000/svg">
<path d="M9.4595 18.5463L9.31096 18.3246H9.04411H2.29354C1.85657 18.3246 1.5 17.968 1.5 17.5299V3.29354C1.5 2.85595 1.85595 2.5 2.29354 2.5H21.7052C22.1453 2.5 22.5 2.85594 22.5 3.29354V17.5299C22.5 17.968 22.1447 18.3246 21.7052 18.3246H14.9559H14.689L14.5405 18.5463L12.0729 22.2292H11.927L9.4595 18.5463Z" stroke="#DBDBDB"/>
<path d="M7.01115 11.9023C6.23062 11.9023 5.59766 11.2726 5.59766 10.5026C5.59766 9.72622 6.23078 9.09766 7.01115 9.09766C7.79145 9.09766 8.42361 9.72614 8.42361 10.5026C8.42363 11.2727 7.79163 11.9023 7.01115 11.9023ZM12 11.9023C11.2195 11.9023 10.5875 11.2727 10.5875 10.5026C10.5875 9.72614 11.2197 9.09766 12 9.09766C12.7803 9.09766 13.4125 9.72614 13.4125 10.5026C13.4125 11.2727 12.7805 11.9023 12 11.9023ZM16.9889 11.9023C16.2095 11.9023 15.5774 11.2728 15.5774 10.5026C15.5774 9.72609 16.2096 9.09766 16.9889 9.09766C17.7702 9.09766 18.4023 9.72618 18.4023 10.5026C18.4023 11.2727 17.7704 11.9023 16.9889 11.9023Z" fill="#DBDBDB" stroke="#DBDBDB" stroke-width="0.195312"/>
</svg>
