<svg width="18" height="18" viewBox="0 0 18 18" fill="none" xmlns="http://www.w3.org/2000/svg">
<path fill-rule="evenodd" clip-rule="evenodd" d="M16.6684 10.1927C16.7274 10.1321 16.7804 10.0647 16.8263 9.99084C17.0412 9.64314 17.0574 9.21706 16.8709 8.85328L15.3236 5.83854C15.0518 5.30996 14.5124 4.98236 13.9142 4.98236H11.5517C11.5294 4.98236 11.5111 4.96427 11.5111 4.94216V1.13153C11.5111 0.506476 10.998 0 10.3694 0H8.54428C7.9136 0 7.40257 0.508486 7.40257 1.13153V4.94216C7.40257 4.96427 7.38431 4.98236 7.36201 4.98236H4.99544C4.39721 4.98236 3.85778 5.30996 3.58604 5.83854L2.03875 8.85328C1.85218 9.21706 1.8684 9.64314 2.08336 9.99084C2.28481 10.3165 2.62395 10.5187 3.00256 10.5435C3.01652 10.5445 3.03053 10.5451 3.04459 10.5456C3.02871 10.8767 2.99734 11.21 2.95138 11.5423C2.71565 13.2467 2.09619 14.9251 1.21542 16.163C0.96193 16.5208 0.929484 16.983 1.13227 17.3709C1.33507 17.7588 1.73456 18 2.17665 18H14.3765C15.0863 18 15.715 17.5257 15.9015 16.8464C16.2159 15.7108 16.4775 14.6778 16.4977 13.5322C16.5126 12.8281 16.4276 12.1561 16.2428 11.5068C16.1501 11.1811 16.0323 10.8611 15.8894 10.5456C16.1884 10.5284 16.4642 10.4023 16.6684 10.1927ZM14.4342 6.29575L15.9811 9.30963C16.0082 9.36269 16.0056 9.41593 15.9763 9.46402C15.9678 9.47747 15.958 9.48952 15.9468 9.5H3C2.98764 9.5 2.97538 9.50045 2.96324 9.50133C2.95224 9.49089 2.9424 9.47867 2.93379 9.46476C2.90404 9.41647 2.90116 9.36323 2.92841 9.3099L4.4754 6.29575C4.57434 6.10348 4.76874 5.98236 4.99544 5.98236H7.36201C7.92813 5.98236 8.40257 5.52499 8.40257 4.94216V1.13153C8.40257 1.06805 8.45858 1 8.54428 1H10.3694C10.4554 1 10.5111 1.06834 10.5111 1.13153V4.94216C10.5111 5.52497 10.9855 5.98236 11.5517 5.98236H13.9142C14.1409 5.98236 14.3353 6.10347 14.4342 6.29575ZM4.04344 10.5935L4.04792 10.5H14.7709L14.9785 10.9582C15.3443 11.7659 15.5171 12.6024 15.498 13.5111L15.4979 13.5145C15.4801 14.5212 15.2516 15.446 14.9378 16.5796L14.9372 16.5815C14.8717 16.82 14.6429 17 14.3765 17H11.6417C11.7786 16.6805 11.8752 16.3787 11.9436 16.1255C12.0875 15.5889 12.1605 15.0503 12.1585 14.5578C12.1565 14.2142 11.8442 13.9529 11.5015 14.0072C11.2257 14.0514 11.0229 14.2885 11.0229 14.5659C11.0242 15.1067 10.9103 15.7497 10.6807 16.3555C10.5966 16.5776 10.4968 16.7947 10.3816 17H6.72689C6.75613 16.9516 6.78435 16.9034 6.81157 16.8555C6.96211 16.5907 7.08214 16.3358 7.17595 16.1114C7.37874 15.6231 7.5288 15.1126 7.60586 14.6543C7.66264 14.3126 7.39496 14.0011 7.04616 14.0011C6.77036 14.0011 6.5331 14.1981 6.48646 14.4694C6.42968 14.803 6.31814 15.2271 6.12752 15.6833C6.04371 15.8857 5.93409 16.1179 5.79519 16.3565C5.66987 16.5717 5.52072 16.792 5.34518 17H2.17665C2.10352 17 2.04726 16.9627 2.01847 16.9076C1.99106 16.8552 1.99339 16.7953 2.03079 16.742C3.2089 15.0858 3.93827 12.7867 4.04344 10.5935Z" fill="#DBDBDB"/>
</svg>
