<svg width="18" height="18" viewBox="0 0 18 18" fill="none" xmlns="http://www.w3.org/2000/svg">
<path d="M12.1585 14.5578L11.6585 14.5599C11.6603 15.0032 11.5944 15.4973 11.4608 15.9954C11.3933 16.2456 11.2969 16.5435 11.1593 16.8555H11.0142L11.0229 14.5659H11.5229C11.5229 14.5658 11.5229 14.5657 11.5229 14.5656C11.523 14.5359 11.5454 14.5067 11.5802 14.5009C11.627 14.4938 11.6583 14.5301 11.6585 14.5608L12.1585 14.5578ZM12.1585 14.5578C12.1605 15.0503 12.0875 15.5889 11.9436 16.1255L12.1585 14.5578ZM6.22791 16.8559C6.43796 16.5264 6.59737 16.199 6.71441 15.9191C6.90429 15.4617 7.04274 14.9879 7.11279 14.5714L6.22791 16.8559ZM6.22791 16.8559L6.07394 16.8561C6.3038 16.5058 6.47183 16.1585 6.58916 15.8754C6.79474 15.3832 6.9164 14.923 6.97926 14.5539L6.22791 16.8559Z" stroke="#DBDBDB"/>
<path d="M3.56839 10.0613L3.54402 10.5695C3.44277 12.681 2.73847 14.8846 1.62325 16.4523C1.47766 16.6579 1.46024 16.919 1.57537 17.1393C1.69116 17.3608 1.91904 17.5 2.17665 17.5H14.3765C14.8646 17.5 15.2934 17.1728 15.4194 16.7139L15.4197 16.713C15.7337 15.5784 15.9788 14.5995 15.9978 13.5233L15.9978 13.5216C16.0186 12.5387 15.8308 11.628 15.4339 10.7519L15.1333 10.0881L15.8607 10.0464C16.0856 10.0335 16.2835 9.91673 16.4013 9.72733C16.5234 9.52938 16.5329 9.28989 16.426 9.08146L14.8789 6.06715L3.56839 10.0613ZM3.56839 10.0613L3.05983 10.0458M3.56839 10.0613L3.05983 10.0458M3.05983 10.0458C2.83151 10.0388 2.62886 9.92224 2.50858 9.7278C2.3862 9.52976 2.37667 9.29006 2.48365 9.08146L4.03072 6.06715C4.03074 6.06711 4.03076 6.06707 4.03078 6.06703C4.21613 5.70661 4.58298 5.48236 4.99544 5.48236H7.36201C7.65622 5.48236 7.90257 5.24463 7.90257 4.94216V1.13153C7.90257 0.788266 8.18609 0.5 8.54428 0.5H10.3694C10.7267 0.5 11.0111 0.787407 11.0111 1.13153V4.94216C11.0111 5.24462 11.2574 5.48236 11.5517 5.48236H13.9142C14.3266 5.48236 14.6934 5.70654 14.8787 6.06685L3.05983 10.0458Z" stroke="#DBDBDB"/>
<path d="M3 10H16" stroke="#DBDBDB" stroke-linecap="round"/>
</svg>
