<svg width="11" height="14" viewBox="0 0 11 14" fill="none" xmlns="http://www.w3.org/2000/svg">
<path fill-rule="evenodd" clip-rule="evenodd" d="M5.12494 0C6.25327 0.000313905 7.34997 0.372877 8.245 1.05992C9.14003 1.74697 9.78339 2.71011 10.0753 3.80002C10.3673 4.88992 10.2915 6.04569 9.85967 7.08813C9.42788 8.13057 8.66423 9.00143 7.68712 9.56568V11.3758C7.68712 11.5084 7.63444 11.6356 7.54067 11.7294C7.44689 11.8232 7.31971 11.8758 7.18709 11.8758H3.0628C2.93018 11.8758 2.80299 11.8232 2.70922 11.7294C2.61544 11.6356 2.56276 11.5084 2.56276 11.3758V9.56468C1.58566 9.00043 0.822007 8.12957 0.390219 7.08713C-0.0415699 6.04469 -0.117375 4.88892 0.174558 3.79902C0.46649 2.70911 1.10985 1.74597 2.00488 1.05892C2.89992 0.371877 3.99662 0.000313905 5.12494 0ZM6.99908 12.8739C7.06808 12.8739 7.12508 12.9309 7.12508 12.9999V13.5C7.12508 13.6326 7.0724 13.7598 6.97863 13.8535C6.88485 13.9473 6.75767 14 6.62505 14H3.62484C3.49222 14 3.36503 13.9473 3.27126 13.8535C3.17748 13.7598 3.1248 13.6326 3.1248 13.5V12.9999C3.1248 12.9309 3.1818 12.8739 3.25081 12.8739H6.99908ZM6.84203 5.16237L6.407 4.83734L6.408 4.83634C6.35955 4.8 6.29867 4.78434 6.23869 4.79277C6.17872 4.80121 6.12453 4.83305 6.08798 4.88135L5.12491 6.16544L4.16184 4.88335L4.10883 4.83235C4.06929 4.80529 4.02226 4.79131 3.97436 4.79239C3.92646 4.79347 3.8801 4.80954 3.84182 4.83835L3.40678 5.16337C3.35849 5.19992 3.32664 5.25411 3.31821 5.31409C3.30977 5.37406 3.32544 5.43494 3.36178 5.48339L4.62387 7.16451V9.18466C4.62387 9.24539 4.648 9.30365 4.69095 9.34659C4.7339 9.38954 4.79215 9.41367 4.85289 9.41367H5.53894C5.5995 9.41341 5.6575 9.38916 5.70023 9.34624C5.74296 9.30332 5.76695 9.24522 5.76695 9.18466V6.9995H5.74895L6.88703 5.48239C6.92337 5.43394 6.93904 5.37306 6.9306 5.31309C6.92217 5.25311 6.89032 5.19892 6.84203 5.16237Z" fill="#575757"/>
</svg>
