<svg width="20" height="20" viewBox="0 0 20 20" fill="none" xmlns="http://www.w3.org/2000/svg">
<path d="M7.31937 7.31864C7.56221 7.07581 7.89143 6.93918 8.23485 6.93872H16.6441C16.9875 6.93918 17.3167 7.07581 17.5595 7.31864C17.8024 7.56154 17.9391 7.89087 17.9395 8.23438V16.6431C17.9391 16.9866 17.8024 17.3159 17.5595 17.5588C17.3166 17.8017 16.9873 17.9383 16.6438 17.9387H8.23511C7.8916 17.9383 7.56227 17.8017 7.31937 17.5588C7.07654 17.316 6.93991 16.9867 6.93945 16.6433V8.23411C6.93991 7.8907 7.07654 7.56148 7.31937 7.31864Z" stroke="#808080"/>
<path d="M15 5.39574V4.79512C14.9995 4.31919 14.8102 3.86291 14.4736 3.52638C14.1371 3.18984 13.6808 3.00054 13.2049 3H4.79512C4.31919 3.00054 3.86291 3.18984 3.52638 3.52638C3.18984 3.86291 3.00054 4.31919 3 4.79512V13.2049C3.00054 13.6808 3.18984 14.1371 3.52638 14.4736C3.86291 14.8102 4.31919 14.9995 4.79512 15H5.39574" stroke="#808080" stroke-linecap="round"/>
</svg>
