<svg width="18" height="16" viewBox="0 0 18 16" fill="none" xmlns="http://www.w3.org/2000/svg">
<path d="M14.2538 14.3328H3.63375C3.22875 14.3665 2.925 14.6928 2.925 15.0978C2.925 15.5028 3.22875 15.8403 3.63375 15.874H14.2538C14.5463 15.8965 14.8163 15.7503 14.9625 15.5028C15.1088 15.2553 15.1088 14.9515 14.9625 14.704C14.8884 14.5844 14.7835 14.4868 14.6589 14.4215C14.5342 14.3562 14.3943 14.3256 14.2538 14.3328ZM16.9875 0.124023H1.0125C0.45 0.124023 0 0.607773 0 1.21527V12.0828C0 12.6903 0.45 13.174 1.0125 13.174H16.9875C17.55 13.174 18 12.6903 18 12.0828V1.21527C18 0.607773 17.55 0.124023 16.9875 0.124023ZM12.7463 10.5078C12.4312 10.6428 12.1163 10.699 11.8012 10.699C11.3062 10.699 10.8225 10.5415 10.3613 10.2153C9.16875 9.36027 8.67375 7.93152 8.235 6.66027C7.66125 5.00652 7.25625 4.08402 6.15375 4.07277C4.68 4.08402 3.74625 7.00902 3.5325 8.03277C3.465 8.37027 3.11625 8.59527 2.77875 8.52777C2.61318 8.4964 2.46684 8.40057 2.37191 8.26133C2.27698 8.1221 2.24122 7.95086 2.2725 7.78527C2.385 7.29027 3.375 2.85777 6.1425 2.82402C8.235 2.74527 8.89875 4.63527 9.46125 6.26652C9.855 7.41402 10.26 8.59527 11.1263 9.20277C11.4975 9.47277 11.8575 9.51777 12.2513 9.34902C13.365 8.88777 14.4225 6.97527 14.625 5.56902C14.67 5.22027 15.0075 4.98402 15.3563 5.02902C15.705 5.07402 15.9525 5.40027 15.8963 5.73777C15.6263 7.51527 14.355 9.84402 12.7463 10.5078Z" fill="#808080"/>
</svg>
