<svg width="24" height="24" viewBox="0 0 24 24" fill="none" xmlns="http://www.w3.org/2000/svg">
<path d="M12.9705 2.73507L12.9703 2.73497C12.74 2.58155 12.4708 2.5 12.1939 2.5C11.9268 2.5 11.666 2.576 11.4405 2.72011L3.14687 8.01386C3.14684 8.01388 3.14682 8.0139 3.14679 8.01392C2.74237 8.27198 2.5 8.71449 2.5 9.19392V19.7509C2.5 20.5233 3.12764 21.1509 3.89996 21.1509H20.1C20.8724 21.1509 21.5 20.5233 21.5 19.7509V9.17082C21.5 8.7023 21.2669 8.26609 20.8766 8.00592L12.9705 2.73507Z" stroke="#DBDBDB"/>
<path d="M13.7999 21.151H14.2999V20.651V17.0509C14.2999 15.7824 13.2687 14.751 11.9999 14.751C10.7311 14.751 9.7 15.7825 9.7 17.0511V20.651V21.151H10.2H13.7999Z" stroke="#DBDBDB"/>
</svg>
