<svg width="18" height="18" viewBox="0 0 18 18" fill="none" xmlns="http://www.w3.org/2000/svg">
<path d="M12.6441 15.5H5.35593C4.8696 15.5 4.5 15.1183 4.5 14.6909V7.5H13.5V14.6909C13.5 15.1183 13.1304 15.5 12.6441 15.5Z" stroke="#575757"/>
<path d="M14.6 7.5H3.4C2.98868 7.5 2.5 7.05645 2.5 6.31579V5.68421C2.5 4.94355 2.98868 4.5 3.4 4.5H14.6C15.0113 4.5 15.5 4.94355 15.5 5.68421V6.31579C15.5 7.05645 15.0113 7.5 14.6 7.5Z" stroke="#575757"/>
<path d="M11.1781 4.5H6.82192C6.78499 4.5 6.71504 4.48117 6.63815 4.38094C6.56127 4.28071 6.5 4.12187 6.5 3.92857V3.07143C6.5 2.87813 6.56127 2.71929 6.63815 2.61906C6.71504 2.51883 6.78499 2.5 6.82192 2.5H11.1781C11.215 2.5 11.285 2.51883 11.3618 2.61906C11.4387 2.71929 11.5 2.87813 11.5 3.07143V3.92857C11.5 4.12187 11.4387 4.28071 11.3618 4.38094C11.285 4.48117 11.215 4.5 11.1781 4.5Z" stroke="#575757"/>
<path d="M7.5 10V13" stroke="#575757" stroke-linecap="round"/>
<path d="M10.5 10V13" stroke="#575757" stroke-linecap="round"/>
</svg>
