<svg width="16" height="16" viewBox="0 0 16 16" fill="none" xmlns="http://www.w3.org/2000/svg">
<path d="M3 5V13.5455C3 14.3455 3.61017 15 4.35593 15H11.6441C12.3898 15 13 14.3455 13 13.5455V5" stroke="white"/>
<path d="M14 5.5H2C1.50402 5.5 1 5.02199 1 4.31579V3.68421C1 2.97801 1.50402 2.5 2 2.5H14C14.496 2.5 15 2.97801 15 3.68421V4.31579C15 5.02199 14.496 5.5 14 5.5Z" stroke="white"/>
<path d="M10.1781 2.5H5.82192C5.78499 2.5 5.71504 2.48117 5.63815 2.38094C5.56127 2.28071 5.5 2.12187 5.5 1.92857V1.07143C5.5 0.878133 5.56127 0.719287 5.63815 0.619062C5.71504 0.518835 5.78499 0.5 5.82192 0.5H10.1781C10.215 0.5 10.285 0.518835 10.3618 0.619062C10.4387 0.719287 10.5 0.878133 10.5 1.07143V1.92857C10.5 2.12187 10.4387 2.28071 10.3618 2.38094C10.285 2.48117 10.215 2.5 10.1781 2.5Z" stroke="white"/>
<path d="M6 9V12" stroke="white" stroke-linecap="round"/>
<path d="M10 9V12" stroke="white" stroke-linecap="round"/>
</svg>
