<svg width="28" height="28" viewBox="0 0 28 28" fill="none" xmlns="http://www.w3.org/2000/svg">
<path d="M23.3687 5.2736C23.361 5.25875 23.3483 5.24712 23.3329 5.24078C21.5459 4.42087 19.66 3.83621 17.7226 3.50143C17.705 3.49816 17.6868 3.50052 17.6706 3.50818C17.6544 3.51584 17.6411 3.5284 17.6324 3.54409C17.3757 4.01016 17.1425 4.4889 16.934 4.97847C14.8456 4.66144 12.7212 4.66144 10.6328 4.97847C10.4229 4.48766 10.186 4.0088 9.92332 3.54409C9.91431 3.52875 9.90089 3.51647 9.8848 3.50886C9.86871 3.50125 9.85071 3.49866 9.83313 3.50143C7.89549 3.83551 6.00954 4.42021 4.22274 5.24083C4.20744 5.24731 4.19454 5.25839 4.1858 5.27252C0.612558 10.6087 -0.366289 15.8137 0.1139 20.9542C0.115251 20.9668 0.119122 20.979 0.125282 20.99C0.131442 21.0011 0.139767 21.0108 0.14976 21.0186C2.23043 22.5592 4.55768 23.7351 7.0322 24.4962C7.04963 24.5015 7.06824 24.5012 7.08552 24.4956C7.10281 24.4899 7.11795 24.4791 7.1289 24.4646C7.66038 23.7414 8.1313 22.9756 8.53689 22.1751C8.54247 22.1641 8.54565 22.1521 8.54623 22.1397C8.54681 22.1274 8.54478 22.1152 8.54026 22.1037C8.53575 22.0922 8.52886 22.0819 8.52005 22.0732C8.51123 22.0646 8.50069 22.058 8.48913 22.0538C7.74651 21.7696 7.02757 21.4271 6.33906 21.0294C6.32655 21.0221 6.31605 21.0117 6.30847 20.9994C6.3009 20.987 6.29649 20.9729 6.29563 20.9585C6.29478 20.944 6.2975 20.9295 6.30356 20.9163C6.30962 20.9031 6.31883 20.8916 6.33039 20.8829C6.47527 20.7747 6.61763 20.6631 6.75737 20.5483C6.76963 20.5382 6.78446 20.5318 6.80019 20.5296C6.81593 20.5275 6.83194 20.5298 6.84644 20.5363C11.3572 22.5949 16.2407 22.5949 20.698 20.5363C20.7126 20.5294 20.7287 20.5268 20.7447 20.5287C20.7607 20.5306 20.7758 20.5371 20.7882 20.5472C20.9281 20.6626 21.0709 20.7745 21.2163 20.8829C21.2279 20.8916 21.2372 20.903 21.2434 20.9161C21.2495 20.9292 21.2523 20.9437 21.2516 20.9582C21.2508 20.9726 21.2465 20.9867 21.2391 20.9991C21.2316 21.0116 21.2211 21.022 21.2087 21.0294C20.5217 21.4304 19.8022 21.7728 19.0576 22.0527C19.046 22.0571 19.0355 22.0639 19.0268 22.0726C19.018 22.0814 19.0112 22.0918 19.0068 22.1034C19.0024 22.115 19.0004 22.1273 19.0011 22.1397C19.0018 22.152 19.0051 22.1641 19.0107 22.1751C19.4231 22.9712 19.8933 23.736 20.4176 24.4633C20.4283 24.4782 20.4433 24.4894 20.4607 24.4953C20.478 24.5012 20.4968 24.5015 20.5143 24.4961C22.9933 23.7376 25.3246 22.5615 27.4079 21.0186C27.418 21.0112 27.4265 21.0017 27.4327 20.9908C27.4388 20.9799 27.4426 20.9678 27.4437 20.9552C28.0186 15.0123 26.4813 9.84997 23.3687 5.2736ZM9.21054 17.8241C7.85247 17.8241 6.73347 16.5779 6.73347 15.0473C6.73347 13.5167 7.83077 12.2704 9.21054 12.2704C10.6011 12.2704 11.7093 13.5276 11.6876 15.0472C11.6876 16.5779 10.5902 17.8241 9.21054 17.8241ZM18.369 17.8241C17.011 17.8241 15.892 16.5779 15.892 15.0473C15.892 13.5167 16.9893 12.2704 18.369 12.2704C19.7596 12.2704 20.8678 13.5276 20.8461 15.0472C20.8461 16.5779 19.7596 17.8241 18.369 17.8241Z" fill="white"/>
</svg>
