<svg width="20" height="20" viewBox="0 0 20 20" fill="none" xmlns="http://www.w3.org/2000/svg">
<path d="M6.01951 9.61639L5.6855 9.51047V3.53619L6.321 3.76318C6.98607 4.00378 7.51812 4.49407 7.89943 5.21286C7.96002 5.30366 8.09451 5.35511 8.2896 5.36419C8.35921 5.36329 8.42729 5.34313 8.48661 5.30583C8.54594 5.26853 8.5943 5.21549 8.62656 5.15233C8.70342 4.94199 8.71672 4.771 8.66499 4.68323C8.00879 3.57251 7.13386 2.90063 6.06828 2.68575L5.6855 2.60706V1.47364C5.6942 1.3354 5.65667 1.19824 5.57909 1.08474C5.55396 1.06053 5.46824 1 5.22143 1C5.06034 1 4.9421 1.03783 4.86525 1.10895C4.80613 1.16948 4.76623 1.3087 4.75736 1.47516V2.64641L4.3332 2.69332C3.46713 2.78714 2.75182 3.13216 2.20203 3.72232C1.56505 4.37301 1.23547 5.25977 1.22217 6.35536C1.22217 8.11677 2.26706 9.28953 4.41448 9.94477L4.75736 10.0477V16.491L4.14993 16.3125C3.36959 16.081 2.71635 15.568 2.2109 14.7902C2.10449 14.6313 1.94339 14.5526 1.7084 14.5435C1.55027 14.5435 1.47637 14.5919 1.4276 14.7145C1.35814 14.9672 1.36996 15.1685 1.46159 15.3304C2.15622 16.4547 3.13165 17.1296 4.35832 17.3339L4.75736 17.399V18.5248C4.75736 18.714 4.79431 18.8472 4.86525 18.9137C4.89037 18.9395 4.97609 19 5.22143 19C5.35173 19.0004 5.47833 18.9556 5.58056 18.8729C5.65003 18.8169 5.6855 18.7004 5.6855 18.5248V17.4035L6.08158 17.3339C6.84578 17.2003 7.55405 16.8374 8.11668 16.2913C8.83791 15.5952 9.21034 14.7115 9.22217 13.6658C9.22217 11.6411 8.17284 10.3155 6.01951 9.61639ZM4.75736 9.2971L4.08195 8.97629C2.8198 8.37402 2.16952 7.49332 2.14883 6.35687C2.14883 5.54124 2.39416 4.86784 2.87449 4.35939C3.18781 3.99773 3.63562 3.76923 4.20757 3.67541L4.75736 3.58461V9.2971ZM7.44127 15.6588C7.12943 15.9417 6.75256 16.1672 6.32248 16.3246L5.68698 16.5591V10.2868L6.37864 10.6424C7.63192 11.2931 8.27778 12.3115 8.29551 13.6658C8.29551 14.4648 8.00731 15.1337 7.44127 15.6588Z" fill="#575757"/>
</svg>
