<svg width="20" height="20" viewBox="0 0 20 20" fill="none" xmlns="http://www.w3.org/2000/svg">
<path d="M2.88273 9C3.60202 9.11066 5.31727 9.94062 5.31727 10.9366C5.31727 11.7665 4.70863 12.0432 3.60202 12.5411C2.44008 13.0391 0.946163 13.7031 1.00149 15.6397C1.05682 16.9123 1.77612 17.9082 3.15938 18.4062C3.76801 18.6275 4.48731 18.7382 5.15127 18.7382C6.53454 18.7382 7.9178 18.2955 8.4711 17.6315" stroke="#DBDBDB" stroke-linecap="round"/>
<path d="M17.1083 5.53224L17.8526 4.0988C17.8923 4.02235 17.8632 3.9304 17.7868 3.8907L15.5926 2.7499C15.5162 2.7102 15.4242 2.7393 15.3845 2.81575L14.6402 4.24919L17.1083 5.53224ZM16.6816 6.35409L14.2124 5.07316L10.2615 12.6821L10.4698 15.2978L12.7291 13.9635L16.6816 6.35409ZM16.0205 1.92594L18.2141 3.06512C18.4689 3.19745 18.6602 3.42621 18.7465 3.69884C18.8328 3.97147 18.8079 4.26862 18.6756 4.52345L13.4908 14.5087C13.4511 14.5852 13.3902 14.6506 13.3151 14.6939L10.3021 16.4725C10.1644 16.5533 9.99412 16.5593 9.85184 16.4854C9.70956 16.4115 9.61539 16.2709 9.60341 16.1097L9.32496 12.6217C9.31879 12.5349 9.33564 12.448 9.37533 12.3715L14.5585 2.38676C14.6908 2.13193 14.9195 1.94064 15.1922 1.85438C15.4685 1.76871 15.7662 1.79521 16.0205 1.92594Z" fill="#DBDBDB"/>
</svg>
