<svg width="20" height="20" viewBox="0 0 20 20" fill="none" xmlns="http://www.w3.org/2000/svg">
<path d="M9.68264 12.1544H13.2883C13.6819 12.1544 14 11.8386 14 11.4497V3.55028C14 3.16143 13.6819 2.84564 13.2883 2.84564H2.71171C2.31815 2.84564 2 3.16143 2 3.55028V11.4474C2 11.8386 2.31815 12.1544 2.71171 12.152" stroke="#DBDBDB" stroke-linecap="round"/>
<path d="M11.3174 6.84564H7.7117C7.31814 6.84564 7 7.16143 7 7.55027V15.4497C7 15.8386 7.31814 16.1544 7.7117 16.1544H18.2883C18.6819 16.1544 19 15.8386 19 15.4497V7.55263C19 7.16143 18.6819 6.84564 18.2883 6.84799" stroke="#DBDBDB" stroke-linecap="round"/>
<line x1="4.37114e-08" y1="9.5" x2="20" y2="9.5" stroke="#DBDBDB" stroke-dasharray="2 2"/>
</svg>
