<svg width="20" height="20" viewBox="0 0 20 20" fill="none" xmlns="http://www.w3.org/2000/svg">
<path d="M9.02632 10.4737C9.02632 10.7498 9.25017 10.9737 9.52632 10.9737H17.537C17.4489 12.3854 16.989 13.7519 16.2 14.9329C15.318 16.2528 14.0645 17.2816 12.5979 17.8891C11.1312 18.4965 9.51741 18.6555 7.96046 18.3458C6.40351 18.0361 4.97335 17.2717 3.85085 16.1492C2.72835 15.0267 1.96392 13.5965 1.65422 12.0396C1.34453 10.4826 1.50347 8.86878 2.11097 7.40217C2.71846 5.93555 3.74721 4.68201 5.06713 3.80007C6.24808 3.01098 7.61466 2.55107 9.02632 2.46297V10.4737Z" stroke="#DBDBDB" stroke-linejoin="round"/>
<mask id="path-2-inside-1_1186_12748" fill="white">
<path d="M10.4736 1.49998C10.4736 1.22384 10.6976 0.998453 10.9733 1.01464C11.9221 1.07034 12.8562 1.28439 13.7365 1.64901C14.7709 2.0775 15.7109 2.70554 16.5026 3.49728C17.2943 4.28902 17.9224 5.22896 18.3509 6.26342C18.7155 7.14369 18.9295 8.07775 18.9852 9.02658C19.0014 9.30224 18.776 9.5263 18.4999 9.5263L10.9736 9.5263C10.6974 9.5263 10.4736 9.30244 10.4736 9.0263L10.4736 1.49998Z"/>
</mask>
<path d="M10.4736 1.49998C10.4736 1.22384 10.6976 0.998453 10.9733 1.01464C11.9221 1.07034 12.8562 1.28439 13.7365 1.64901C14.7709 2.0775 15.7109 2.70554 16.5026 3.49728C17.2943 4.28902 17.9224 5.22896 18.3509 6.26342C18.7155 7.14369 18.9295 8.07775 18.9852 9.02658C19.0014 9.30224 18.776 9.5263 18.4999 9.5263L10.9736 9.5263C10.6974 9.5263 10.4736 9.30244 10.4736 9.0263L10.4736 1.49998Z" stroke="#DBDBDB" stroke-width="2" stroke-linejoin="round" mask="url(#path-2-inside-1_1186_12748)"/>
</svg>
