<svg width="20" height="20" viewBox="0 0 20 20" fill="none" xmlns="http://www.w3.org/2000/svg">
<path d="M10.0674 6.36044C9.87216 6.16517 9.55558 6.16517 9.36031 6.36044L6.17833 9.54242C5.98307 9.73768 5.98307 10.0543 6.17833 10.2495C6.37359 10.4448 6.69018 10.4448 6.88544 10.2495L9.71387 7.4211L12.5423 10.2495C12.7376 10.4448 13.0541 10.4448 13.2494 10.2495C13.4447 10.0543 13.4447 9.73768 13.2494 9.54242L10.0674 6.36044ZM9.21387 18.714C9.21387 18.9901 9.43772 19.214 9.71387 19.214C9.99001 19.214 10.2139 18.9901 10.2139 18.714L9.21387 18.714ZM9.71387 6.71399L9.21387 6.71399L9.21387 18.714L9.71387 18.714L10.2139 18.714L10.2139 6.71399L9.71387 6.71399Z" fill="#575757"/>
<path d="M15.7139 4.71399C15.99 4.71399 16.2139 4.49013 16.2139 4.21399C16.2139 3.93785 15.99 3.71399 15.7139 3.71399L15.7139 4.71399ZM15.7139 4.21399L15.7139 3.71399L3.71387 3.71399L3.71387 4.21399L3.71387 4.71399L15.7139 4.71399L15.7139 4.21399Z" fill="#575757"/>
<circle cx="2.35693" cy="4.35697" r="1.66667" transform="rotate(-135 2.35693 4.35697)" stroke="#575757"/>
<circle cx="17.3569" cy="4.35697" r="1.66667" transform="rotate(-135 17.3569 4.35697)" stroke="#575757"/>
</svg>
