<svg width="20" height="20" viewBox="0 0 20 20" fill="none" xmlns="http://www.w3.org/2000/svg">
<path d="M15.8471 17.5H4.15294C3.19247 17.5 2.5 16.8052 2.5 16.0569V8.94305C2.5 8.19481 3.19247 7.5 4.15294 7.5H15.8471C16.8075 7.5 17.5 8.19481 17.5 8.94305V16.0569C17.5 16.8052 16.8075 17.5 15.8471 17.5Z" stroke="#DBDBDB"/>
<path d="M7.2023 3.26832L6.82342 2.94205L6.82342 2.94205L7.2023 3.26832ZM12.5545 4.10201C12.68 4.34803 12.9811 4.44579 13.2271 4.32037C13.4731 4.19495 13.5709 3.89384 13.4455 3.64782L12.5545 4.10201ZM9.7902 1.68726C8.5712 1.68726 7.5519 2.0961 6.82342 2.94205L7.58118 3.59459C8.08815 3.00586 8.81024 2.68726 9.7902 2.68726V1.68726ZM6.82342 2.94205C5.90849 4.00453 5.5 5.6817 5.5 7.81279H6.5C6.5 5.76577 6.90054 4.38499 7.58118 3.59459L6.82342 2.94205ZM13.4455 3.64782C13.1056 2.98126 12.631 2.47862 12.0003 2.14966C11.3778 1.82497 10.6377 1.68726 9.7902 1.68726V2.68726C10.5356 2.68726 11.1025 2.80923 11.5378 3.03629C11.965 3.25909 12.2988 3.60028 12.5545 4.10201L13.4455 3.64782Z" fill="#DBDBDB"/>
<path d="M10 11L10 15" stroke="#DBDBDB" stroke-linecap="round"/>
</svg>
