<svg width="20" height="20" viewBox="0 0 20 20" fill="none" xmlns="http://www.w3.org/2000/svg">
<path d="M10.074 19.5L10.2882 19.404C10.3671 19.3689 12.2451 18.5262 14.1525 17.1518C15.2876 16.334 16.1962 15.4965 16.8527 14.6626C17.7141 13.5702 18.15 12.4736 18.15 11.4017V3.20481M10.074 19.5L10.2026 19.213L10.2029 19.2123L10.2784 19.0437L10.0904 18.9595L10.0887 18.9587L10.074 18.9521M10.074 19.5L9.85976 19.404C9.78059 19.3694 7.90289 18.5262 5.99522 17.1521M10.074 19.5L9.94537 19.213L9.94429 19.2106L9.86953 19.0437L10.0531 18.9614L10.0593 18.9587L10.074 18.9521M10.074 18.9521L10.0837 18.9477L10.0849 18.9472C10.1513 18.9177 11.9934 18.0912 13.8602 16.7461L13.8602 16.7461C14.9688 15.9475 15.8397 15.141 16.4598 14.3533L16.4601 14.353C17.2728 13.3224 17.65 12.3317 17.65 11.4017V3.56463M10.074 18.9521L10.0642 18.9477L10.0642 18.9477L10.0599 18.9458C9.99705 18.9184 8.15502 18.0916 6.28759 16.7464M17.65 3.56463L17.9912 3.67892L18.15 3.20481M17.65 3.56463V3.20481H18.15M17.65 3.56463L10.075 1.02731M18.15 3.20481L10.075 0.5M10.075 0.5L10.2339 0.974091L10.075 1.02731M10.075 0.5L2 3.20585M10.075 0.5L9.91619 0.97411L10.075 1.02731M10.075 1.02731L2.5 3.56563M2 3.20585H2.5V3.56563M2 3.20585V11.4027C2 12.4744 2.4356 13.5712 3.29527 14.6629M2 3.20585L2.15886 3.67994L2.5 3.56563M2.5 3.56563V11.4027C2.5 12.3327 2.87713 13.3237 3.68809 14.3535L3.29527 14.6629M3.29527 14.6629L3.68809 14.3535C4.3082 15.141 5.17916 15.9475 6.28746 16.7463M3.29527 14.6629C3.95174 15.4965 4.86035 16.334 5.99522 17.1521M6.28746 16.7463L6.28759 16.7464M6.28746 16.7463L5.99522 17.1521M6.28746 16.7463L6.28759 16.7464M5.99522 17.1521L6.28759 16.7464" stroke="#575757"/>
<path d="M7 9L10 12L14.5 7.5" stroke="#575757" stroke-linecap="round" stroke-linejoin="round"/>
</svg>
