<svg width="20" height="20" viewBox="0 0 20 20" fill="none" xmlns="http://www.w3.org/2000/svg">
<path d="M9.64645 14.3536C9.84171 14.5488 10.1583 14.5488 10.3536 14.3536L13.5355 11.1716C13.7308 10.9763 13.7308 10.6597 13.5355 10.4645C13.3403 10.2692 13.0237 10.2692 12.8284 10.4645L10 13.2929L7.17157 10.4645C6.97631 10.2692 6.65973 10.2692 6.46447 10.4645C6.2692 10.6597 6.2692 10.9763 6.46447 11.1716L9.64645 14.3536ZM10.5 2C10.5 1.72386 10.2761 1.5 10 1.5C9.72386 1.5 9.5 1.72386 9.5 2L10.5 2ZM10.5 14L10.5 2L9.5 2L9.5 14L10.5 14Z" fill="#575757"/>
<path d="M2 16C1.72386 16 1.5 16.2239 1.5 16.5C1.5 16.7761 1.72386 17 2 17V16ZM2 17H16V16H2V17Z" fill="#575757"/>
<circle cx="17.3569" cy="16.357" r="1.66667" transform="rotate(45 17.3569 16.357)" stroke="#575757"/>
</svg>
