<svg width="20" height="20" viewBox="0 0 20 20" fill="none" xmlns="http://www.w3.org/2000/svg">
<path d="M7.35355 4.64645C7.15829 4.45118 6.84171 4.45118 6.64645 4.64645L3.46447 7.82843C3.2692 8.02369 3.2692 8.34027 3.46447 8.53553C3.65973 8.7308 3.97631 8.7308 4.17157 8.53553L7 5.70711L9.82843 8.53553C10.0237 8.7308 10.3403 8.7308 10.5355 8.53553C10.7308 8.34027 10.7308 8.02369 10.5355 7.82843L7.35355 4.64645ZM6.5 15C6.5 15.2761 6.72386 15.5 7 15.5C7.27614 15.5 7.5 15.2761 7.5 15H6.5ZM6.5 5L6.5 15H7.5L7.5 5H6.5Z" fill="#575757"/>
<path d="M13.6464 15.3536C13.8417 15.5488 14.1583 15.5488 14.3536 15.3536L17.5355 12.1716C17.7308 11.9763 17.7308 11.6597 17.5355 11.4645C17.3403 11.2692 17.0237 11.2692 16.8284 11.4645L14 14.2929L11.1716 11.4645C10.9763 11.2692 10.6597 11.2692 10.4645 11.4645C10.2692 11.6597 10.2692 11.9763 10.4645 12.1716L13.6464 15.3536ZM14.5 5C14.5 4.72386 14.2761 4.5 14 4.5C13.7239 4.5 13.5 4.72386 13.5 5L14.5 5ZM14.5 15L14.5 5L13.5 5L13.5 15L14.5 15Z" fill="#575757"/>
<path d="M19 4C19.2761 4 19.5 3.77614 19.5 3.5C19.5 3.22386 19.2761 3 19 3V4ZM5 4H19V3H5V4Z" fill="#575757"/>
<path d="M2 16C1.72386 16 1.5 16.2239 1.5 16.5C1.5 16.7761 1.72386 17 2 17V16ZM2 17H16V16H2V17Z" fill="#575757"/>
<circle cx="3.35693" cy="3.35702" r="1.66667" transform="rotate(45 3.35693 3.35702)" stroke="#575757"/>
<circle cx="17.3569" cy="16.357" r="1.66667" transform="rotate(45 17.3569 16.357)" stroke="#575757"/>
</svg>
