<svg width="20" height="20" viewBox="0 0 20 20" fill="none" xmlns="http://www.w3.org/2000/svg">
<path d="M18 6L18 16" stroke="#575757" stroke-linecap="round" stroke-linejoin="round"/>
<path d="M2 6L2 16" stroke="#575757" stroke-linecap="round" stroke-linejoin="round"/>
<path d="M14 2L4 2" stroke="#575757" stroke-linecap="round" stroke-linejoin="round"/>
<path d="M14 18H4" stroke="#575757" stroke-linecap="round" stroke-linejoin="round"/>
<path d="M17.3536 11.3536C17.5488 11.1583 17.5488 10.8417 17.3536 10.6464L14.1716 7.46447C13.9763 7.2692 13.6597 7.2692 13.4645 7.46447C13.2692 7.65973 13.2692 7.97631 13.4645 8.17157L16.2929 11L13.4645 13.8284C13.2692 14.0237 13.2692 14.3403 13.4645 14.5355C13.6597 14.7308 13.9763 14.7308 14.1716 14.5355L17.3536 11.3536ZM3 10.5C2.72386 10.5 2.5 10.7239 2.5 11C2.5 11.2761 2.72386 11.5 3 11.5L3 10.5ZM17 10.5L3 10.5L3 11.5L17 11.5L17 10.5Z" fill="#575757"/>
<path d="M9.35355 2.64645C9.15829 2.45118 8.84171 2.45118 8.64645 2.64645L5.46447 5.82843C5.2692 6.02369 5.2692 6.34027 5.46447 6.53553C5.65973 6.7308 5.97631 6.7308 6.17157 6.53553L9 3.70711L11.8284 6.53553C12.0237 6.7308 12.3403 6.7308 12.5355 6.53553C12.7308 6.34027 12.7308 6.02369 12.5355 5.82843L9.35355 2.64645ZM8.5 17C8.5 17.2761 8.72386 17.5 9 17.5C9.27614 17.5 9.5 17.2761 9.5 17L8.5 17ZM8.5 3L8.5 17L9.5 17L9.5 3L8.5 3Z" fill="#575757"/>
</svg>
