<svg width="20" height="20" viewBox="0 0 20 20" fill="none" xmlns="http://www.w3.org/2000/svg">
<path d="M8.5 15C8.58528 15.3009 9.63 16 11.0884 16C12.0682 16 12.7905 15.7392 13.4901 15.4865C14.1897 15.2337 14.8388 15 15.7804 15C17.559 15 18.7633 15.7954 19 16" stroke="#DBDBDB" stroke-linecap="round"/>
<path d="M1.50559 15.4879L1.41514 16.0875L2.02098 16.0621L4.21277 15.97L4.3961 15.9623L4.53092 15.8378L16.2159 5.05193C16.3793 4.90592 16.4779 4.70337 16.4967 4.48895L16.0044 4.44583L16.4967 4.48895C16.5157 4.27213 16.4522 4.05378 16.3154 3.88092L16.3092 3.87307L16.3026 3.86548L14.8977 2.22912L14.8977 2.22911L14.8944 2.22527C14.7509 2.06152 14.5485 1.95747 14.3274 1.94066C14.2134 1.93065 14.0987 1.9445 13.9905 1.98109L14.1505 2.45428L13.9905 1.9811C13.88 2.01845 13.7794 2.07846 13.6943 2.15635L13.693 2.15755L2.00156 12.9379L1.87232 13.057L1.84609 13.2309L1.50559 15.4879Z" stroke="#DBDBDB"/>
</svg>
