<svg width="20" height="20" viewBox="0 0 20 20" fill="none" xmlns="http://www.w3.org/2000/svg">
<path d="M1.64645 14.0428C1.55268 14.1366 1.5 14.2637 1.5 14.3963V16.9995C1.5 17.2757 1.72386 17.4995 2 17.4995H4.60331C4.73591 17.4995 4.86309 17.4469 4.95686 17.3531L17.1447 5.16583C17.2563 5.0583 17.3452 4.92951 17.4063 4.78704C17.4683 4.64243 17.5002 4.48674 17.5002 4.32941C17.5002 4.17208 17.4683 4.01639 17.4063 3.87178C17.3452 3.72931 17.2563 3.60053 17.1447 3.49299L15.5071 1.85551C15.3996 1.74394 15.2708 1.655 15.1283 1.59393C14.9837 1.53196 14.828 1.5 14.6707 1.5C14.5134 1.5 14.3577 1.53196 14.2131 1.59393C14.0706 1.655 13.9418 1.74395 13.8343 1.85552L1.64645 14.0428Z" stroke="#808080" stroke-linejoin="round"/>
<path d="M9 17H17.5" stroke="#808080" stroke-linecap="round"/>
</svg>
