<svg width="20" height="20" viewBox="0 0 20 20" fill="none" xmlns="http://www.w3.org/2000/svg">
<path d="M12.6011 9.21137C13.1561 9.21137 13.6509 8.70989 13.6509 8.00112C13.6509 7.29235 13.1561 6.78418 12.6011 6.78418C12.0461 6.78418 11.558 7.29235 11.558 8.00112C11.558 8.70989 12.0461 9.21137 12.6011 9.21137ZM7.37225 9.21137C7.93391 9.21137 8.42871 8.70989 8.42871 8.00112C8.42871 7.29235 7.93391 6.78418 7.37225 6.78418C6.81058 6.78418 6.34253 7.29235 6.34253 8.00112C6.34253 8.70989 6.81727 9.21137 7.37225 9.21137Z" fill="#575757"/>
<circle cx="10" cy="10" r="8.5" stroke="#575757"/>
<path d="M6.34058 12.4072C7.2534 13.3873 8.55519 14.0002 10.0001 14.0002C11.4451 14.0002 12.7469 13.3873 13.6597 12.4072" stroke="#575757" stroke-linecap="round"/>
</svg>
