<svg width="20" height="20" viewBox="0 0 20 20" fill="none" xmlns="http://www.w3.org/2000/svg">
<path d="M10 17.5C5.85814 17.5 2.5 14.1419 2.5 10C2.5 5.85814 5.85814 2.5 10 2.5C14.1419 2.5 17.5 5.85814 17.5 10C17.5 14.1419 14.1419 17.5 10 17.5Z" stroke="#3D3D3D"/>
<path d="M9.28996 14.7028C9.47796 14.8958 9.71096 14.9938 9.98896 14.9938C10.259 14.9938 10.492 14.9008 10.689 14.7168C10.886 14.5128 10.985 14.2728 10.985 13.9958C10.985 13.6998 10.891 13.4648 10.702 13.2888C10.523 13.1038 10.285 13.0118 9.98896 13.0118C9.70196 13.0118 9.46896 13.1038 9.28996 13.2888C9.10196 13.4648 9.00796 13.6998 9.00796 13.9958C9.00796 14.2728 9.10196 14.5078 9.28996 14.7028ZM12.216 5.70679C11.695 5.24179 11.006 5.00879 10.15 5.00879C9.16996 5.00879 8.40196 5.28979 7.84596 5.85179C7.28996 6.40479 7.01196 7.15979 7.01196 8.11679H8.40196C8.40196 7.53679 8.52096 7.08879 8.75996 6.77379C9.02396 6.39579 9.45696 6.20679 10.057 6.20679C10.543 6.20679 10.918 6.33879 11.183 6.60179C11.439 6.87479 11.567 7.23379 11.567 7.68179C11.567 8.00679 11.443 8.32679 11.196 8.64279L10.971 8.89279C10.141 9.62979 9.64196 10.1748 9.47496 10.5258C9.29796 10.8508 9.20996 11.2668 9.20996 11.7768V11.9998H10.627V11.7768C10.627 11.4508 10.697 11.1618 10.838 10.9078C10.962 10.6528 11.147 10.4248 11.395 10.2228C12.021 9.67879 12.392 9.33579 12.507 9.19579C12.842 8.76579 13.01 8.23079 13.01 7.58979C13.01 6.79079 12.745 6.16379 12.216 5.70679Z" fill="#3D3D3D"/>
</svg>
