<svg width="12" height="10" viewBox="0 0 12 10" fill="none" xmlns="http://www.w3.org/2000/svg">
<path d="M8.76549 10C8.63787 9.9958 8.51278 9.96441 8.39912 9.90808L5.8617 8.6868L3.33784 9.90151C3.20995 9.96613 3.06593 9.99484 2.92206 9.9844C2.77818 9.97395 2.6402 9.92477 2.52369 9.84242C2.40563 9.75745 2.31403 9.64264 2.25898 9.51059C2.20392 9.37854 2.18753 9.23437 2.21161 9.09389L2.73402 6.4675L0.739356 4.66842C0.637114 4.56576 0.564022 4.43927 0.527172 4.30122C0.490322 4.16316 0.490963 4.01824 0.529035 3.8805C0.572013 3.74293 0.655004 3.62025 0.768095 3.5271C0.881185 3.43395 1.01959 3.37428 1.16678 3.35522L3.93488 2.86934L5.18324 0.433355C5.24547 0.308646 5.34137 0.202535 5.4608 0.12625C5.58023 0.0499651 5.71875 0.00634318 5.8617 0C6.00539 0.00341913 6.1452 0.0458632 6.26516 0.122488C6.38512 0.199114 6.48041 0.306834 6.54015 0.433355L7.78173 2.86934L10.6109 3.33552C10.7556 3.35496 10.8913 3.4151 11.0011 3.50848C11.1108 3.60186 11.1898 3.72436 11.2283 3.8608C11.2755 3.99674 11.282 4.14281 11.2472 4.2822C11.2124 4.42158 11.1376 4.54863 11.0315 4.64872L9.01652 6.4675L9.51857 9.09389C9.54424 9.23443 9.52859 9.37911 9.47341 9.51145C9.41823 9.6438 9.32574 9.75848 9.20648 9.84242C9.08085 9.94324 8.92187 9.99686 8.7587 9.99343L8.76549 10Z" fill="#FFC440"/>
</svg>
