<svg width="18" height="18" viewBox="0 0 18 18" fill="none" xmlns="http://www.w3.org/2000/svg">
<path d="M13.5983 16.989C13.5736 16.9884 13.5491 16.9897 13.525 16.9927C13.4202 16.9788 13.3183 16.9471 13.2238 16.8987L13.2238 16.8987L13.2185 16.896L9.04389 14.8199C8.90365 14.7501 8.73884 14.7501 8.5986 14.8199L4.44627 16.8849L4.44623 16.8848L4.43752 16.8893C4.30978 16.956 4.16593 16.9856 4.02224 16.9749C3.87925 16.9641 3.74208 16.9138 3.62608 16.8296C3.50639 16.7401 3.41353 16.6195 3.3576 16.4809L2.89393 16.668L3.3576 16.4809C3.30212 16.3434 3.28511 16.1934 3.30834 16.047L4.16646 11.5893C4.199 11.4202 4.1423 11.2463 4.01637 11.129L0.74557 8.08067C0.641462 7.96977 0.56689 7.8344 0.528812 7.68701C0.49042 7.53839 0.490407 7.38251 0.528709 7.23396C0.572266 7.09507 0.654203 6.97125 0.765138 6.87684C0.878089 6.78071 1.01633 6.71913 1.16334 6.69946C1.171 6.69843 1.17864 6.69723 1.18624 6.69585L5.74041 5.86985C5.8959 5.84165 6.02891 5.7416 6.09912 5.60003L8.15296 1.45886L8.15298 1.45887L8.15528 1.45413C8.21846 1.32329 8.31583 1.21196 8.43709 1.13193C8.55343 1.05515 8.6876 1.00991 8.82646 1.00048C8.96298 1.00698 9.09536 1.05013 9.20961 1.12554C9.32874 1.20416 9.42337 1.31469 9.48269 1.44452L9.48905 1.45789L11.5317 5.59906C11.6026 5.74283 11.7382 5.84387 11.8962 5.87078L16.5508 6.66329L16.566 6.66564C16.7072 6.68523 16.8395 6.74584 16.9466 6.83993C17.0536 6.93403 17.1306 7.05749 17.1682 7.19498C17.1707 7.20425 17.1735 7.21344 17.1765 7.22254C17.2242 7.3644 17.2308 7.51682 17.1957 7.66228C17.1609 7.80616 17.0866 7.93745 16.9813 8.04136L13.6706 11.1291C13.5457 11.2456 13.4889 11.4178 13.52 11.5857L14.3456 16.0484C14.3711 16.1945 14.3552 16.3448 14.2997 16.4824L14.7633 16.6695L14.2997 16.4824C14.2439 16.6205 14.1505 16.7401 14.0301 16.8277C14.0215 16.834 14.0132 16.8405 14.005 16.8472C13.8909 16.9418 13.7465 16.9922 13.5983 16.989Z" stroke="#B8B8B8" stroke-linejoin="round"/>
</svg>
