<svg width="32" height="32" viewBox="0 0 32 32" fill="none" xmlns="http://www.w3.org/2000/svg">
<circle cx="16" cy="16" r="16" fill="#2E2E2E"/>
<path d="M10.1661 16.0789C10.1661 15.4243 10.2764 14.797 10.4715 14.208L7.04486 11.614C6.35536 13.0015 5.99767 14.5301 6.00001 16.0795C6.00001 17.6837 6.37577 19.1977 7.04244 20.5413L10.4685 17.9431C10.2685 17.3421 10.1664 16.7129 10.1661 16.0795" fill="#FBBC05"/>
<path d="M16.1861 10.1236C17.5516 10.1208 18.8762 10.5897 19.9358 11.4509L22.8989 8.52C21.0934 6.96242 18.7789 6 16.1861 6C12.1607 6 8.70129 8.28121 7.04492 11.6139L10.474 14.2079C11.2637 11.8321 13.5146 10.123 16.1874 10.123" fill="#EA4335"/>
<path d="M16.2296 21.9022C13.543 21.9022 11.2805 20.2046 10.4866 17.8428L7.04175 20.421C8.7066 23.7331 12.1836 25.9997 16.2302 25.9997C18.726 25.9997 21.109 25.1319 22.8987 23.5034L19.6284 21.0264C18.7066 21.5961 17.5442 21.9028 16.229 21.9028" fill="#34A853"/>
<path d="M26 15.9843C26 15.3928 25.9067 14.7546 25.7673 14.1631H16.2285V18.0328H21.7188C21.4449 19.3528 20.6982 20.3667 19.6285 21.0267L22.8982 23.5037C24.7776 21.7952 26 19.2491 26 15.9843Z" fill="#4285F4"/>
</svg>
