<svg width="24" height="24" viewBox="0 0 24 24" fill="none" xmlns="http://www.w3.org/2000/svg">
<path d="M13 16.579V18.5202C13 18.6893 13.0702 18.8515 13.1951 18.9711C13.3199 19.0907 13.4893 19.1579 13.666 19.1579H18.3276L20.453 21V19.1681H22.3375C22.4256 19.1677 22.5127 19.1505 22.5937 19.1176C22.6748 19.0847 22.7483 19.0368 22.8099 18.9765C22.8715 18.9163 22.92 18.8449 22.9526 18.7666C22.9853 18.6882 23.0013 18.6045 22.9999 18.5202V12.6378C22.9999 12.4686 22.9298 12.3064 22.8049 12.1868C22.68 12.0672 22.5106 12 22.334 12H19" stroke="#DBDBDB"/>
<path d="M3.12214 16.178H5.81414V18.918V20.0449L6.64965 19.2887L10.1068 16.16H17.8101C18.2419 16.16 18.656 15.9885 18.9613 15.6832C19.2666 15.3779 19.4381 14.9638 19.4381 14.532V4.128C19.4381 3.69623 19.2666 3.28214 18.9613 2.97683C18.656 2.67152 18.2419 2.5 17.8101 2.5H3.12814C2.69637 2.5 2.28228 2.67152 1.97697 2.97683C1.67166 3.28214 1.50014 3.69623 1.50014 4.128V14.5284C1.4973 14.7421 1.53659 14.9544 1.61579 15.153C1.69552 15.353 1.81412 15.5351 1.96471 15.6889C2.11531 15.8428 2.29492 15.9652 2.49315 16.0491C2.69137 16.1331 2.90428 16.1769 3.11955 16.178H3.12214Z" stroke="#DBDBDB"/>
</svg>
