<svg width="18" height="18" viewBox="0 0 18 18" fill="none" xmlns="http://www.w3.org/2000/svg">
<path d="M14.4 13.8V12.6C14.4 12.4409 14.3368 12.2883 14.2243 12.1757C14.1117 12.0632 13.9591 12 13.8 12C13.6409 12 13.4883 12.0632 13.3757 12.1757C13.2632 12.2883 13.2 12.4409 13.2 12.6V14.4C13.2 14.5591 13.2632 14.7117 13.3757 14.8243C13.4883 14.9368 13.6409 15 13.8 15H15.6C15.7591 15 15.9117 14.9368 16.0243 14.8243C16.1368 14.7117 16.2 14.5591 16.2 14.4C16.2 14.2409 16.1368 14.0883 16.0243 13.9757C15.9117 13.8632 15.7591 13.8 15.6 13.8H14.4ZM10.3902 17.988H1.2C0.88174 17.988 0.576516 17.8616 0.351472 17.6365C0.126428 17.4115 7.45921e-09 17.1063 0 16.788V1.2C0 0.88174 0.126428 0.576516 0.351472 0.351472C0.576516 0.126428 0.88174 0 1.2 0H15.588C15.9063 0 16.2115 0.126428 16.4365 0.351472C16.6616 0.576516 16.788 0.88174 16.788 1.2V9.3018C15.6328 8.53203 14.2255 8.23671 12.8583 8.47716C11.4911 8.71762 10.269 9.47536 9.44571 10.5931C8.62245 11.7108 8.26126 13.1027 8.43713 14.4797C8.61301 15.8567 9.31243 17.1131 10.3902 17.988ZM3.5976 4.1964C3.51725 4.19386 3.43721 4.20749 3.36223 4.23648C3.28725 4.26548 3.21886 4.30924 3.16113 4.36518C3.10339 4.42112 3.05748 4.48809 3.02613 4.56211C2.99478 4.63614 2.97863 4.71571 2.97863 4.7961C2.97863 4.87649 2.99478 4.95606 3.02613 5.03009C3.05748 5.10411 3.10339 5.17108 3.16113 5.22702C3.21886 5.28296 3.28725 5.32672 3.36223 5.35572C3.43721 5.38471 3.51725 5.39834 3.5976 5.3958H10.7928C10.8731 5.39834 10.9532 5.38471 11.0282 5.35572C11.1031 5.32672 11.1715 5.28296 11.2293 5.22702C11.287 5.17108 11.3329 5.10411 11.3643 5.03009C11.3956 4.95606 11.4118 4.87649 11.4118 4.7961C11.4118 4.71571 11.3956 4.63614 11.3643 4.56211C11.3329 4.48809 11.287 4.42112 11.2293 4.36518C11.1715 4.30924 11.1031 4.26548 11.0282 4.23648C10.9532 4.20749 10.8731 4.19386 10.7928 4.1964H3.5976ZM3.5976 7.794C3.51725 7.79146 3.43721 7.80509 3.36223 7.83408C3.28725 7.86308 3.21886 7.90684 3.16113 7.96278C3.10339 8.01872 3.05748 8.08569 3.02613 8.15971C2.99478 8.23374 2.97863 8.31331 2.97863 8.3937C2.97863 8.47409 2.99478 8.55366 3.02613 8.62769C3.05748 8.70171 3.10339 8.76868 3.16113 8.82462C3.21886 8.88056 3.28725 8.92432 3.36223 8.95332C3.43721 8.98231 3.51725 8.99594 3.5976 8.9934H8.394C8.47435 8.99594 8.55439 8.98231 8.62937 8.95332C8.70435 8.92432 8.77274 8.88056 8.83047 8.82462C8.88821 8.76868 8.93412 8.70171 8.96547 8.62769C8.99682 8.55366 9.01297 8.47409 9.01297 8.3937C9.01297 8.31331 8.99682 8.23374 8.96547 8.15971C8.93412 8.08569 8.88821 8.01872 8.83047 7.96278C8.77274 7.90684 8.70435 7.86308 8.62937 7.83408C8.55439 7.80509 8.47435 7.79146 8.394 7.794H3.5976ZM13.8 18C12.6861 18 11.6178 17.5575 10.8302 16.7698C10.0425 15.9822 9.6 14.9139 9.6 13.8C9.6 12.6861 10.0425 11.6178 10.8302 10.8302C11.6178 10.0425 12.6861 9.6 13.8 9.6C14.9139 9.6 15.9822 10.0425 16.7698 10.8302C17.5575 11.6178 18 12.6861 18 13.8C18 14.9139 17.5575 15.9822 16.7698 16.7698C15.9822 17.5575 14.9139 18 13.8 18Z" fill="#808080"/>
</svg>
