<svg width="24" height="24" viewBox="0 0 24 24" fill="none" xmlns="http://www.w3.org/2000/svg">
<path d="M2 17.9771V19.3511C2 20.313 2.91603 21 3.83206 21H20.1679C21.2366 21 22 20.1756 22 19.3511V4.64885C22 3.68702 21.084 3 20.1679 3H3.98473C2.91603 3 2.15267 3.82443 2.15267 4.64885V11.6565" stroke="#DBDBDB" stroke-linecap="round"/>
<path d="M1.67075 15.6237C1.46293 15.8056 1.44187 16.1214 1.62371 16.3293C1.80555 16.5371 2.12143 16.5581 2.32925 16.3763L1.67075 15.6237ZM9.37166 15.39L9.69706 15.0104L9.37166 15.39ZM9.62985 15.3918L9.94995 15.7759L9.62985 15.3918ZM2.32925 16.3763L6.1989 12.9903L5.5404 12.2378L1.67075 15.6237L2.32925 16.3763ZM5.80611 12.9923L9.04626 15.7696L9.69706 15.0104L6.4569 12.2331L5.80611 12.9923ZM9.94995 15.7759L15.8201 10.8841L15.1799 10.1159L9.30976 15.0077L9.94995 15.7759ZM9.04626 15.7696C9.30561 15.9919 9.68754 15.9946 9.94995 15.7759L9.30976 15.0077C9.42222 14.914 9.58591 14.9151 9.69706 15.0104L9.04626 15.7696ZM6.1989 12.9903C6.08667 13.0885 5.91934 13.0894 5.80611 12.9923L6.4569 12.2331C6.1927 12.0066 5.80227 12.0086 5.5404 12.2378L6.1989 12.9903Z" fill="#DBDBDB"/>
<path d="M16.9693 8.83076C17.1667 8.81318 17.3266 8.98847 17.291 9.18344L16.8465 11.6188C16.802 11.863 16.4971 11.9505 16.3298 11.7671L14.3084 9.5513C14.1411 9.36792 14.2562 9.07231 14.5035 9.0503L16.9693 8.83076Z" fill="#DBDBDB"/>
</svg>
