<svg width="12" height="12" viewBox="0 0 12 12" fill="none" xmlns="http://www.w3.org/2000/svg">
<path d="M0.923013 10.654H11.0753C11.3085 10.654 11.4983 10.8438 11.4983 11.077C11.4983 11.3101 11.3085 11.5 11.0753 11.5H0.923013C0.689856 11.5 0.5 11.3101 0.5 11.077C0.5 10.8438 0.688191 10.654 0.923013 10.654ZM2.19205 0.5H9.80628C10.7406 0.5 11.4983 1.25776 11.4983 2.19205V8.11423C11.4983 9.04852 10.7406 9.80628 9.80628 9.80628H2.19205C1.25776 9.80628 0.5 9.04852 0.5 8.11423V2.19372C0.5 1.25776 1.25776 0.5 2.19205 0.5ZM4.45534 3.2729L2.10045 5.62945C1.93558 5.79432 1.93558 6.06245 2.10045 6.22733C2.26533 6.3922 2.53346 6.3922 2.69833 6.22733L4.79008 4.13558L6.88183 6.22733C6.96677 6.31226 7.08002 6.3539 7.19326 6.35057C7.30485 6.3539 7.41809 6.31226 7.50469 6.22733L9.89788 3.83414C10.0628 3.66927 10.0628 3.40114 9.89788 3.23626C9.73301 3.07139 9.46488 3.07139 9.3 3.23626L7.19326 5.34133L5.12483 3.2729C5.11484 3.25958 5.10318 3.24625 5.09152 3.2346C5.00825 3.15132 4.9 3.10969 4.79008 3.11136C4.68183 3.11136 4.57192 3.15132 4.48864 3.2346C4.47699 3.24792 4.46533 3.25958 4.45534 3.2729Z" fill="#575757"/>
</svg>
