<svg width="18" height="17" viewBox="0 0 18 17" fill="none" xmlns="http://www.w3.org/2000/svg">
<path d="M16.446 0.859375H1.55396C1.14182 0.859375 0.746567 1.0231 0.455143 1.31452C0.16372 1.60594 0 2.0012 0 2.41333L0 14.586C0 14.9981 0.16372 15.3934 0.455143 15.6848C0.746567 15.9762 1.14182 16.1399 1.55396 16.1399H16.446C16.8582 16.1399 17.2534 15.9762 17.5449 15.6848C17.8363 15.3934 18 14.9981 18 14.586V2.41333C18 2.0012 17.8363 1.60594 17.5449 1.31452C17.2534 1.0231 16.8582 0.859375 16.446 0.859375ZM15.4619 4.95923L9.48302 11.2592C9.43601 11.3087 9.37968 11.3484 9.31728 11.376C9.25488 11.4037 9.18763 11.4187 9.1194 11.4203C9.05117 11.4218 8.9833 11.4099 8.9197 11.3852C8.85609 11.3604 8.79801 11.3233 8.74878 11.2761L6.66389 9.28182L3.28532 12.7575C3.18895 12.8528 3.05908 12.9065 2.92356 12.9071C2.78805 12.9078 2.65768 12.8553 2.56042 12.7609C2.46317 12.6665 2.40677 12.5378 2.40333 12.4023C2.39989 12.2668 2.44968 12.1354 2.54201 12.0362L6.27928 8.19146C6.37461 8.09325 6.50494 8.03675 6.64179 8.03433C6.77864 8.0319 6.91089 8.08374 7.00964 8.17851L9.08935 10.1689L13.7176 5.29204L12.139 5.48499C12.0026 5.50216 11.8651 5.46446 11.7565 5.38019C11.6479 5.29592 11.5773 5.17198 11.5601 5.03563C11.543 4.89929 11.5807 4.7617 11.6649 4.65315C11.7492 4.54459 11.8731 4.47396 12.0095 4.45679L15.0216 4.08772C15.1276 4.07448 15.2352 4.09437 15.3295 4.14468C15.4238 4.19498 15.5003 4.27323 15.5484 4.36869C15.5964 4.46415 15.6138 4.57215 15.5981 4.67788C15.5824 4.78361 15.5344 4.88188 15.4606 4.95923H15.4619Z" fill="#808080"/>
</svg>
