<svg width="18" height="18" viewBox="0 0 18 18" fill="none" xmlns="http://www.w3.org/2000/svg">
<path d="M3 15L15 3" stroke="#B8B8B8" stroke-linecap="round"/>
<path fill-rule="evenodd" clip-rule="evenodd" d="M3.85068 13.8564C5.49485 15.1557 7.21089 15.7959 9 15.7959C12.2368 15.7959 15.2345 13.7003 18 9.39796C16.516 7.08919 14.965 5.4159 13.3462 4.36091L12.6214 5.08573C14.0229 5.95075 15.4182 7.35811 16.8019 9.39797C14.23 13.1896 11.6179 14.7959 9 14.7959C7.51701 14.7959 6.03588 14.2805 4.56286 13.1442L3.85068 13.8564ZM6.81572 10.8914C7.29478 11.5804 8.09587 12.0306 9 12.0306C10.4603 12.0306 11.6518 10.8561 11.6518 9.39796C11.6518 8.48986 11.1897 7.69175 10.4883 7.21885L9.75951 7.9476C10.2909 8.22004 10.6518 8.7692 10.6518 9.39796C10.6518 10.2954 9.91649 11.0306 9 11.0306C8.36621 11.0306 7.81905 10.679 7.5418 10.1653L6.81572 10.8914ZM7.4441 8.84879L6.39572 9.89718C6.36451 9.73562 6.34817 9.56874 6.34817 9.39796C6.34817 7.93986 7.53966 6.76531 9 6.76531C9.16515 6.76531 9.32687 6.78033 9.48381 6.80909L8.4267 7.86619C7.96887 8.03358 7.60795 8.39564 7.4441 8.84879ZM11.6988 4.5941C10.8008 4.19017 9.90075 4 9 4C6.38212 4 3.77001 5.60633 1.19814 9.39796C2.06026 10.669 2.92691 11.6944 3.79678 12.4961L3.0897 13.2032C2.02925 12.2195 0.999463 10.9529 0 9.39796C2.7655 5.0956 5.76319 3 9 3C10.1816 3 11.3314 3.27928 12.4496 3.84325L11.6988 4.5941Z" fill="#B8B8B8"/>
</svg>
