<svg width="20" height="20" viewBox="0 0 20 20" fill="none" xmlns="http://www.w3.org/2000/svg">
<circle cx="10" cy="10" r="8.5" stroke="#DBDBDB"/>
<path d="M14.5 10C14.5 12.4167 13.9547 14.5798 13.0985 16.1211C12.2328 17.6794 11.1167 18.5 10 18.5C8.88332 18.5 7.76723 17.6794 6.90154 16.1211C6.04526 14.5798 5.5 12.4167 5.5 10C5.5 7.58333 6.04526 5.42016 6.90154 3.87886C7.76723 2.32062 8.88332 1.5 10 1.5C11.1167 1.5 12.2328 2.32062 13.0985 3.87886C13.9547 5.42016 14.5 7.58333 14.5 10Z" stroke="#DBDBDB"/>
<path d="M10 1.5V18" stroke="#DBDBDB"/>
<path d="M1 10H19" stroke="#DBDBDB"/>
</svg>
