<svg width="24" height="24" viewBox="0 0 24 24" fill="none" xmlns="http://www.w3.org/2000/svg">
<path d="M5 2L10 6" stroke="#DBDBDB" stroke-linecap="round"/>
<path d="M19 2.5L14 6.39021" stroke="#DBDBDB" stroke-linecap="round"/>
<path d="M9.83098 17.6049C10.0378 17.7187 10.2855 17.7075 10.4791 17.586C10.4796 17.5857 10.4801 17.5854 10.4806 17.5851L15.1984 14.6376C15.392 14.5178 15.5 14.3085 15.5 14.0935C15.5 13.8652 15.3817 13.6714 15.2122 13.5583L15.206 13.5542L15.1997 13.5503L10.4991 10.6135C10.3693 10.5198 10.2302 10.5 10.1394 10.5C10.0261 10.5 9.9184 10.5313 9.82912 10.5809L10.0719 11.018L9.83098 10.5799C9.62006 10.6959 9.5 10.9147 9.5 11.1416V17.0432C9.5 17.2701 9.62007 17.4889 9.83098 17.6049Z" stroke="#DBDBDB"/>
<rect x="1.5" y="6.5" width="21" height="15" rx="1.5" stroke="#DBDBDB"/>
</svg>
