<svg width="12" height="13" viewBox="0 0 12 13" fill="none" xmlns="http://www.w3.org/2000/svg">
<mask id="path-1-inside-1_5529_36930" fill="white">
<path d="M7.14314 1.08299C7.16895 1.11788 7.18292 1.1601 7.18304 1.20349V11.7962C7.18308 11.834 7.17263 11.871 7.15285 11.9031C7.13308 11.9353 7.10476 11.9613 7.07106 11.9782C7.03737 11.9952 6.99961 12.0025 6.96202 11.9992C6.92443 11.996 6.88847 11.9824 6.85817 11.9599L3.09005 9.17452C3.05482 9.14809 3.01196 9.13381 2.96792 9.13381L1.20518 9.14521C1.17845 9.14542 1.15194 9.14037 1.12716 9.13034C1.10238 9.12031 1.07982 9.10549 1.06077 9.08674C1.04172 9.06799 1.02654 9.04567 1.01612 9.02106C1.00569 8.99644 1.00021 8.97002 1 8.94328V4.05808C1 4.0041 1.02145 3.95232 1.05962 3.91415C1.09779 3.87598 1.14957 3.85453 1.20355 3.85453H2.96874C3.01213 3.85442 3.05435 3.84044 3.08924 3.81464L6.85899 1.03984C6.88052 1.02393 6.90498 1.01242 6.93096 1.00598C6.95695 0.999539 6.98395 0.998286 7.01042 1.00229C7.0369 1.0063 7.06232 1.01549 7.08523 1.02934C7.10814 1.04319 7.12729 1.06142 7.14314 1.08299ZM8.97265 9.17778L10.7362 10.1955C10.7828 10.2226 10.8167 10.267 10.8306 10.319C10.8445 10.3711 10.8372 10.4265 10.8103 10.4732L10.4032 11.1791C10.3761 11.2257 10.3317 11.2596 10.2797 11.2735C10.2276 11.2874 10.1722 11.2801 10.1256 11.2532L8.362 10.2354C8.31543 10.2084 8.28148 10.1639 8.26759 10.1119C8.25371 10.0599 8.26101 10.0044 8.28791 9.95778L8.69501 9.25187C8.72207 9.2053 8.76648 9.17135 8.81852 9.15746C8.87056 9.14357 8.92599 9.15088 8.97265 9.17778ZM10.974 5.89003C11.0279 5.89003 11.0797 5.91148 11.1179 5.94965C11.1561 5.98782 11.1775 6.0396 11.1775 6.09358V6.90778C11.1775 6.96177 11.1561 7.01354 11.1179 7.05172C11.0797 7.08989 11.0279 7.11133 10.974 7.11133H8.93845C8.88447 7.11133 8.8327 7.08989 8.79452 7.05172C8.75635 7.01354 8.7349 6.96177 8.7349 6.90778V6.09358C8.7349 6.0396 8.75635 5.98782 8.79452 5.94965C8.8327 5.91148 8.88447 5.89003 8.93845 5.89003H10.974ZM10.4032 1.82229L10.8103 2.5282C10.8372 2.57486 10.8445 2.63029 10.8306 2.68233C10.8167 2.73437 10.7828 2.77878 10.7362 2.80584L8.97265 3.82359C8.92599 3.85049 8.87056 3.85779 8.81852 3.84391C8.76648 3.83002 8.72207 3.79607 8.69501 3.7495L8.28791 3.04359C8.26101 2.99692 8.25371 2.9415 8.26759 2.88946C8.28148 2.83742 8.31543 2.79301 8.362 2.76595L10.1256 1.7482C10.1722 1.7213 10.2276 1.71399 10.2797 1.72788C10.3317 1.74177 10.3761 1.77572 10.4032 1.82229Z"/>
</mask>
<path d="M7.14314 1.08299L6.3374 1.67527L6.33915 1.67763L7.14314 1.08299ZM7.18304 1.20349H8.18304L8.18303 1.20086L7.18304 1.20349ZM7.18304 11.7962H6.18304L6.18304 11.7973L7.18304 11.7962ZM6.85817 11.9599L7.45417 11.1569L7.4526 11.1557L6.85817 11.9599ZM3.09005 9.17452L2.49004 9.97454L2.49563 9.97867L3.09005 9.17452ZM2.96792 9.13381V8.13379L2.96146 8.13383L2.96792 9.13381ZM1.20518 9.14521L1.19871 8.14523L1.19715 8.14524L1.20518 9.14521ZM1 8.94328H-3.17097e-05L3.17693e-05 8.95125L1 8.94328ZM2.96874 3.85453V4.85454L2.97137 4.85453L2.96874 3.85453ZM3.08924 3.81464L2.49644 3.00928L2.4946 3.01064L3.08924 3.81464ZM6.85899 1.03984L7.45178 1.84519L7.45325 1.84411L6.85899 1.03984ZM8.97265 9.17778L9.47249 8.31166L9.47201 8.31138L8.97265 9.17778ZM10.7362 10.1955L11.2386 9.33088L11.236 9.32941L10.7362 10.1955ZM10.8103 10.4732L11.6766 10.9727L11.6767 10.9725L10.8103 10.4732ZM10.4032 11.1791L11.2678 11.6815L11.2695 11.6787L10.4032 11.1791ZM10.1256 11.2532L9.62572 12.1193L9.6262 12.1196L10.1256 11.2532ZM8.362 10.2354L7.8596 11.1001L7.86216 11.1015L8.362 10.2354ZM8.28791 9.95778L7.42164 9.4582L7.42151 9.45842L8.28791 9.95778ZM8.69501 9.25187L7.83037 8.74947L7.82874 8.75229L8.69501 9.25187ZM10.4032 1.82229L11.2695 1.32271L11.2678 1.31989L10.4032 1.82229ZM10.8103 2.5282L11.6767 2.02884L11.6766 2.02862L10.8103 2.5282ZM10.7362 2.80584L11.236 3.67196L11.2386 3.67048L10.7362 2.80584ZM8.97265 3.82359L9.47201 4.68999L9.47249 4.68971L8.97265 3.82359ZM8.69501 3.7495L7.82874 4.24908L7.83037 4.25189L8.69501 3.7495ZM8.28791 3.04359L7.42151 3.54295L7.42164 3.54317L8.28791 3.04359ZM8.362 2.76595L7.86216 1.89982L7.85961 1.90131L8.362 2.76595ZM10.1256 1.7482L9.6262 0.881801L9.62572 0.882076L10.1256 1.7482ZM6.33915 1.67763C6.23818 1.54111 6.18349 1.37591 6.18304 1.20613L8.18303 1.20086C8.18236 0.944292 8.09971 0.694648 7.94714 0.488359L6.33915 1.67763ZM6.18304 1.20349V11.7962H8.18304V1.20349H6.18304ZM6.18304 11.7973C6.18289 11.6496 6.22378 11.5048 6.30115 11.3791L8.00456 12.4271C8.12147 12.2371 8.18326 12.0183 8.18304 11.7952L6.18304 11.7973ZM6.30115 11.3791C6.37852 11.2533 6.48931 11.1516 6.62117 11.0852L7.52096 12.8713C7.72021 12.7709 7.88764 12.6172 8.00456 12.4271L6.30115 11.3791ZM6.62117 11.0852C6.75303 11.0187 6.90075 10.9903 7.04784 11.0029L6.87619 12.9956C7.09848 13.0147 7.32171 12.9717 7.52096 12.8713L6.62117 11.0852ZM7.04784 11.0029C7.19493 11.0156 7.33561 11.0689 7.45417 11.1569L6.26217 12.7629C6.44133 12.8959 6.65392 12.9764 6.87619 12.9956L7.04784 11.0029ZM7.4526 11.1557L3.68448 8.37037L2.49563 9.97867L6.26375 12.764L7.4526 11.1557ZM3.69005 8.37452C3.48173 8.21827 3.22834 8.13381 2.96792 8.13381V10.1338C2.79559 10.1338 2.62791 10.0779 2.49005 9.97452L3.69005 8.37452ZM2.96146 8.13383L1.19871 8.14523L1.21165 10.1452L2.97439 10.1338L2.96146 8.13383ZM1.19715 8.14524C1.30175 8.1444 1.40548 8.16417 1.50242 8.20342L0.751893 10.0573C0.898394 10.1166 1.05515 10.1464 1.21321 10.1452L1.19715 8.14524ZM1.50242 8.20342C1.59939 8.24268 1.68765 8.30064 1.7622 8.374L0.35934 9.79948C0.471987 9.91034 0.605374 9.99794 0.751893 10.0573L1.50242 8.20342ZM1.7622 8.374C1.83674 8.44736 1.89611 8.53469 1.93691 8.63101L0.0953209 9.41111C0.156976 9.55666 0.246694 9.68862 0.35934 9.79948L1.7622 8.374ZM1.93691 8.63101C1.97771 8.72732 1.99913 8.83073 1.99997 8.93532L3.17693e-05 8.95125C0.0012911 9.1093 0.0336692 9.26556 0.0953209 9.41111L1.93691 8.63101ZM2 8.94328V4.05808H0V8.94328H2ZM2 4.05808C2 4.26931 1.91609 4.47189 1.76673 4.62126L0.352512 3.20704C0.126802 3.43275 0 3.73888 0 4.05808H2ZM1.76673 4.62126C1.61736 4.77062 1.41478 4.85453 1.20355 4.85453V2.85453C0.884351 2.85453 0.578223 2.98133 0.352512 3.20704L1.76673 4.62126ZM1.20355 4.85453H2.96874V2.85453H1.20355V4.85453ZM2.97137 4.85453C3.22794 4.85385 3.47758 4.7712 3.68387 4.61863L2.4946 3.01064C2.63112 2.90968 2.79632 2.85498 2.9661 2.85454L2.97137 4.85453ZM3.68203 4.61999L7.45178 1.84519L6.26619 0.234488L2.49644 3.00928L3.68203 4.61999ZM7.45325 1.84411C7.369 1.90636 7.27329 1.95139 7.17161 1.97659L6.69032 0.0353685C6.53667 0.0734635 6.39204 0.141496 6.26472 0.235569L7.45325 1.84411ZM7.17161 1.97659C7.06993 2.0018 6.96428 2.00671 6.8607 1.99102L7.16015 0.0135662C7.00363 -0.0101352 6.84397 -0.00272632 6.69032 0.0353685L7.17161 1.97659ZM6.8607 1.99102C6.75712 1.97534 6.65766 1.93937 6.56801 1.88519L7.60245 0.173491C7.46697 0.0916145 7.31667 0.0372679 7.16015 0.0135662L6.8607 1.99102ZM6.56801 1.88519C6.46654 1.82387 6.39084 1.74796 6.3374 1.67526L7.94888 0.490721C7.86373 0.374882 7.74974 0.262504 7.60245 0.173491L6.56801 1.88519ZM8.47281 10.0439L10.2364 11.0616L11.236 9.32941L9.47249 8.31166L8.47281 10.0439ZM10.2338 11.0602C10.0516 10.9543 9.91877 10.7805 9.86443 10.5769L11.7968 10.0612C11.7147 9.75349 11.514 9.49088 11.2386 9.33089L10.2338 11.0602ZM9.86443 10.5769C9.81008 10.3732 9.83868 10.1564 9.94391 9.97381L11.6767 10.9725C11.8357 10.6966 11.8789 10.3689 11.7968 10.0612L9.86443 10.5769ZM9.94403 9.97359L9.53693 10.6795L11.2695 11.6787L11.6766 10.9727L9.94403 9.97359ZM9.53856 10.6767C9.64444 10.4945 9.81823 10.3616 10.0218 10.3073L10.5375 12.2397C10.8452 12.1576 11.1078 11.9568 11.2678 11.6815L9.53856 10.6767ZM10.0218 10.3073C10.2255 10.253 10.4423 10.2815 10.6249 10.3868L9.6262 12.1196C9.90212 12.2786 10.2298 12.3218 10.5375 12.2397L10.0218 10.3073ZM10.6254 10.3871L8.86184 9.3693L7.86216 11.1015L9.62572 12.1193L10.6254 10.3871ZM8.86439 9.37078C9.04661 9.47666 9.17944 9.65044 9.23378 9.85407L7.30141 10.3697C7.38352 10.6775 7.58425 10.9401 7.85961 11.1001L8.86439 9.37078ZM9.23378 9.85407C9.28812 10.0577 9.25954 10.2746 9.1543 10.4571L7.42151 9.45842C7.26249 9.73433 7.21929 10.062 7.30141 10.3697L9.23378 9.85407ZM9.15418 10.4574L9.56128 9.75145L7.82874 8.75229L7.42164 9.4582L9.15418 10.4574ZM9.55965 9.75426C9.45377 9.93647 9.27999 10.0693 9.07636 10.1236L8.56068 8.19127C8.25297 8.27339 7.99036 8.47412 7.83037 8.74947L9.55965 9.75426ZM9.07636 10.1236C8.87272 10.178 8.65587 10.1494 8.47329 10.0442L9.47201 8.31138C9.19611 8.15236 8.8684 8.10915 8.56068 8.19127L9.07636 10.1236ZM10.974 6.89003C10.7627 6.89003 10.5601 6.80612 10.4108 6.65676L11.825 5.24254C11.5993 5.01684 11.2932 4.89003 10.974 4.89003V6.89003ZM10.4108 6.65676C10.2614 6.50739 10.1775 6.30481 10.1775 6.09358H12.1775C12.1775 5.77439 12.0507 5.46826 11.825 5.24254L10.4108 6.65676ZM10.1775 6.09358V6.90778H12.1775V6.09358H10.1775ZM10.1775 6.90778C10.1775 6.69656 10.2614 6.49398 10.4108 6.34461L11.825 7.75882C12.0507 7.53311 12.1775 7.22698 12.1775 6.90778H10.1775ZM10.4108 6.34461C10.5601 6.19525 10.7627 6.11133 10.974 6.11133V8.11133C11.2932 8.11133 11.5993 7.98453 11.825 7.75882L10.4108 6.34461ZM10.974 6.11133H8.93845V8.11133H10.974V6.11133ZM8.93845 6.11133C9.14969 6.11133 9.35227 6.19525 9.50163 6.34461L8.08742 7.75882C8.31313 7.98453 8.61925 8.11133 8.93845 8.11133V6.11133ZM9.50163 6.34461C9.65099 6.49397 9.7349 6.69655 9.7349 6.90778H7.7349C7.7349 7.22698 7.86171 7.53311 8.08742 7.75882L9.50163 6.34461ZM9.7349 6.90778V6.09358H7.7349V6.90778H9.7349ZM9.7349 6.09358C9.7349 6.30481 9.65099 6.50739 9.50163 6.65676L8.08742 5.24254C7.86171 5.46825 7.7349 5.77438 7.7349 6.09358H9.7349ZM9.50163 6.65676C9.35227 6.80612 9.14969 6.89003 8.93845 6.89003V4.89003C8.61925 4.89003 8.31313 5.01683 8.08742 5.24254L9.50163 6.65676ZM8.93845 6.89003H10.974V4.89003H8.93845V6.89003ZM9.53693 2.32186L9.94403 3.02778L11.6766 2.02862L11.2695 1.32271L9.53693 2.32186ZM9.94391 3.02756C9.83868 2.84498 9.81008 2.62813 9.86443 2.42449L11.7968 2.94017C11.8789 2.63245 11.8357 2.30475 11.6767 2.02884L9.94391 3.02756ZM9.86443 2.42449C9.91877 2.22086 10.0516 2.04708 10.2338 1.9412L11.2386 3.67048C11.514 3.51049 11.7147 3.24788 11.7968 2.94017L9.86443 2.42449ZM10.2364 1.93972L8.47281 2.95747L9.47249 4.68971L11.236 3.67196L10.2364 1.93972ZM8.47329 2.9572C8.65588 2.85196 8.87274 2.82338 9.07636 2.87772L8.56068 4.81009C8.86839 4.89221 9.19609 4.84902 9.47201 4.68999L8.47329 2.9572ZM9.07636 2.87772C9.27999 2.93206 9.45377 3.06489 9.55965 3.24711L7.83037 4.25189C7.99037 4.52726 8.25298 4.72798 8.56068 4.81009L9.07636 2.87772ZM9.56128 3.24992L9.15418 2.54401L7.42164 3.54317L7.82874 4.24908L9.56128 3.24992ZM9.1543 2.54423C9.25954 2.72681 9.28812 2.94367 9.23378 3.1473L7.30141 2.63162C7.21929 2.93933 7.26249 3.26704 7.42151 3.54295L9.1543 2.54423ZM9.23378 3.1473C9.17944 3.35093 9.04661 3.52471 8.86439 3.63058L7.85961 1.90131C7.58425 2.0613 7.38352 2.32391 7.30141 2.63162L9.23378 3.1473ZM8.86184 3.63206L10.6254 2.61431L9.62572 0.882076L7.86216 1.89983L8.86184 3.63206ZM10.6249 2.61459C10.4423 2.71983 10.2255 2.74841 10.0218 2.69407L10.5375 0.761694C10.2298 0.679579 9.90212 0.72277 9.6262 0.881801L10.6249 2.61459ZM10.0218 2.69407C9.81822 2.63973 9.64444 2.5069 9.53856 2.32468L11.2678 1.31989C11.1078 1.04453 10.8452 0.843808 10.5375 0.761694L10.0218 2.69407Z" fill="#A77FED" mask="url(#path-1-inside-1_5529_36930)"/>
</svg>
