<svg width="24" height="24" viewBox="0 0 24 24" fill="none" xmlns="http://www.w3.org/2000/svg">
<circle cx="12" cy="12" r="11.5" stroke="#DBDBDB"/>
<path d="M5.6746 14.1204C5.46494 14.3001 5.44066 14.6157 5.62037 14.8254C5.80008 15.0351 6.11573 15.0593 6.3254 14.8796L5.6746 14.1204ZM9.5 11.5L9.85355 11.1464C9.66881 10.9617 9.37297 10.9503 9.1746 11.1204L9.5 11.5ZM12 14L11.6464 14.3536C11.7402 14.4473 11.8674 14.5 12 14.5C12.1326 14.5 12.2598 14.4473 12.3536 14.3536L12 14ZM6.3254 14.8796L9.8254 11.8796L9.1746 11.1204L5.6746 14.1204L6.3254 14.8796ZM9.14645 11.8536L11.6464 14.3536L12.3536 13.6464L9.85355 11.1464L9.14645 11.8536ZM12.3536 14.3536L16.8536 9.85355L16.1464 9.14645L11.6464 13.6464L12.3536 14.3536Z" fill="#DBDBDB"/>
<path d="M23.1746 23.8796C23.3843 24.0593 23.6999 24.0351 23.8796 23.8254C24.0593 23.6157 24.0351 23.3001 23.8254 23.1204L23.1746 23.8796ZM19.6746 20.8796L23.1746 23.8796L23.8254 23.1204L20.3254 20.1204L19.6746 20.8796Z" fill="#DBDBDB"/>
<path d="M13 9H17V13" stroke="#DBDBDB" stroke-linecap="round" stroke-linejoin="round"/>
</svg>
