<svg width="20" height="20" viewBox="0 0 20 20" fill="none" xmlns="http://www.w3.org/2000/svg">
<path d="M4 16.5L7.10791 13.7805C7.25753 13.6589 7.40456 13.5677 7.54901 13.5068C7.69863 13.4409 7.84824 13.408 7.99785 13.408C8.16294 13.408 8.32288 13.4384 8.47765 13.4992C8.63758 13.5601 8.79235 13.6589 8.94197 13.7957L10.1879 14.8981L13.3143 12.1764C13.4742 12.0345 13.6393 11.9331 13.8096 11.8723C13.9798 11.8064 14.163 11.7734 14.359 11.7734C14.5447 11.7734 14.7279 11.8089 14.9084 11.8799C15.089 11.9458 15.2541 12.0471 15.4037 12.184L18.9944 15.5139" stroke="#575757"/>
<path d="M15.5 7.25V5.5C15.5 4.39543 14.6046 3.5 13.5 3.5H2.5C1.39543 3.5 0.5 4.39543 0.5 5.5V12.5C0.5 13.6046 1.39543 14.5 2.5 14.5H3.5" stroke="#575757"/>
<rect x="4" y="7" width="15" height="11" rx="2" stroke="#575757"/>
<circle cx="7.75" cy="10.75" r="1.25" stroke="#575757"/>
</svg>
