<svg width="20" height="20" viewBox="0 0 20 20" fill="none" xmlns="http://www.w3.org/2000/svg">
<path d="M2.50627 17.2004L2.50667 17.2006C2.50667 17.2006 2.50742 17.2009 2.50874 17.2015L2.51316 17.2029C2.51456 17.2019 2.51625 17.2007 2.51823 17.1991C2.51831 17.1991 2.51838 17.199 2.51846 17.1989L11.4959 10.0087L11.4961 10.0086C11.4976 10.0073 11.4987 10.0064 11.4994 10.0056L2.50627 17.2004ZM2.50627 17.2004C2.50632 17.2004 2.50551 17.2 2.50416 17.1992M2.50627 17.2004L2.50416 17.1992M2.51799 2.8009L2.51785 2.80079C2.516 2.7993 2.5144 2.79811 2.51307 2.79717C2.50943 2.79823 2.50668 2.79945 2.5061 2.79973L2.28987 2.3489L2.50668 2.79945C2.50612 2.79972 2.50337 2.80113 2.50017 2.80339L2.51799 2.8009ZM2.51799 2.8009L11.4958 9.9915M2.51799 2.8009L11.4958 9.9915M2.50416 17.1992L2.50018 17.1967L2.50416 17.1992ZM11.4958 9.9915C11.4975 9.99283 11.4986 9.99387 11.4994 9.9946M11.4958 9.9915L11.4994 9.9946M11.4994 9.9946C11.4992 9.99366 11.499 9.99322 11.499 9.99325M11.4994 9.9946L11.499 9.99325M11.499 9.99325C11.4991 9.99356 11.4996 9.99452 11.5002 9.99545L11.499 9.99325Z" stroke="#DBDBDB" stroke-linejoin="round"/>
<path d="M14 2L14 18" stroke="#DBDBDB" stroke-linecap="round"/>
<path d="M18 2L18 18" stroke="#DBDBDB" stroke-linecap="round"/>
</svg>
