<svg width="20" height="20" viewBox="0 0 20 20" fill="none" xmlns="http://www.w3.org/2000/svg">
<path d="M15.4937 2.7996L15.4933 2.79941C15.4933 2.79941 15.4926 2.79906 15.4913 2.79855L15.4868 2.79708C15.4854 2.79806 15.4838 2.79931 15.4818 2.80088C15.4817 2.80094 15.4816 2.801 15.4815 2.80106L6.50411 9.99131L6.50395 9.99144C6.50241 9.99267 6.50132 9.99364 6.50059 9.99435C6.50052 9.99469 6.50045 9.99508 6.50038 9.99553C6.50006 9.99751 6.5 9.99921 6.5 9.99987C6.5 10.0004 6.50005 10.002 6.50037 10.004L15.4937 2.7996ZM15.4937 2.7996C15.4937 2.79958 15.4945 2.79997 15.4958 2.80076L15.4998 2.80334C15.4999 2.80503 15.5 2.80712 15.5 2.80962L15.5 17.1905C15.5 17.1929 15.4999 17.195 15.4998 17.1966L15.4937 2.7996ZM6.50063 10.0054C6.49933 10.0041 6.49925 10.0038 6.49977 10.0045C6.50043 10.0055 6.50087 10.0064 6.50098 10.0067C6.501 10.0068 6.50083 10.0063 6.50063 10.0054ZM6.50063 10.0054C6.50089 10.0056 6.50119 10.0059 6.50155 10.0063C6.50221 10.0069 6.50305 10.0076 6.50411 10.0084L6.50063 10.0054ZM15.482 17.1991L6.50418 10.0085L15.4939 17.2003C15.4933 17.2005 15.4906 17.2018 15.4869 17.2028C15.4856 17.2019 15.484 17.2007 15.4821 17.1992L15.482 17.1991Z" stroke="#DBDBDB" stroke-linejoin="round"/>
<path d="M2.5 18L2.5 2" stroke="#DBDBDB" stroke-linecap="round"/>
</svg>
