<svg width="20" height="20" viewBox="0 0 20 20" fill="none" xmlns="http://www.w3.org/2000/svg">
<mask id="path-1-inside-1_2668_9563" fill="white">
<path d="M5.57174 1.5C5.46078 1.5 5.36966 1.53451 5.31981 1.55841C5.22374 1.60465 5 1.74651 5 2.06655V17.9332C5 18.2533 5.22351 18.3953 5.31981 18.4416C5.41589 18.4878 5.66647 18.5735 5.91659 18.3735L15.8218 10.4401C16.0058 10.2929 16.0331 10.1012 16.0331 10.0001C16.0331 9.89907 16.0056 9.70736 15.8218 9.56008L5.91636 1.62653C5.79593 1.53 5.67504 1.5 5.57174 1.5Z"/>
</mask>
<path d="M5.31981 1.55841L4.88735 0.656763L4.88619 0.657321L5.31981 1.55841ZM5.31981 18.4416L5.75344 17.5405L5.75261 17.5401L5.31981 18.4416ZM5.91659 18.3735L6.5412 19.1544L6.54173 19.154L5.91659 18.3735ZM15.8218 10.4401L15.197 9.65936L15.1967 9.65962L15.8218 10.4401ZM15.8218 9.56008L16.4471 8.77968L16.4469 8.77957L15.8218 9.56008ZM5.91636 1.62653L5.29096 2.40683L5.29123 2.40704L5.91636 1.62653ZM5.57174 0.5C5.26018 0.5 5.0172 0.594481 4.88735 0.656764L5.75228 2.46006C5.73327 2.46918 5.71098 2.47823 5.68431 2.48546C5.65755 2.49271 5.61938 2.5 5.57174 2.5V0.5ZM4.88619 0.657321C4.65593 0.768125 4 1.17275 4 2.06655H6C6 2.10592 5.99259 2.1578 5.971 2.21449C5.94985 2.27005 5.92057 2.31595 5.89101 2.3513C5.83726 2.41557 5.78307 2.44525 5.75344 2.45951L4.88619 0.657321ZM4 2.06655V17.9332H6V2.06655H4ZM4 17.9332C4 18.8262 4.6545 19.2314 4.88701 19.3431L5.75261 17.5401C5.78326 17.5548 5.83757 17.5847 5.89127 17.649C5.92081 17.6844 5.95002 17.7302 5.97111 17.7857C5.99262 17.8422 6 17.894 6 17.9332H4ZM4.88619 19.3427C5.11922 19.4548 5.84413 19.7119 6.5412 19.1544L5.29198 17.5925C5.32246 17.5681 5.36732 17.5417 5.42481 17.5231C5.48114 17.505 5.53512 17.4991 5.58119 17.5001C5.66496 17.5018 5.7224 17.5256 5.75344 17.5405L4.88619 19.3427ZM6.54173 19.154L16.4469 11.2207L15.1967 9.65962L5.29146 17.593L6.54173 19.154ZM16.4466 11.2209C16.9589 10.811 17.0331 10.2651 17.0331 10.0001H15.0331C15.0331 9.965 15.0373 9.91212 15.061 9.84943C15.0877 9.77862 15.1347 9.70919 15.197 9.65936L16.4466 11.2209ZM17.0331 10.0001C17.0331 9.7343 16.9582 9.18921 16.4471 8.77968L15.1965 10.3405C15.1344 10.2907 15.0877 10.2216 15.061 10.1511C15.0374 10.0887 15.0331 10.0358 15.0331 10.0001H17.0331ZM16.4469 8.77957L6.5415 0.846012L5.29123 2.40704L15.1967 10.3406L16.4469 8.77957ZM6.54177 0.846229C6.22935 0.595821 5.88303 0.5 5.57174 0.5V2.5C5.52565 2.5 5.47304 2.49312 5.41892 2.47492C5.36383 2.4564 5.32068 2.43065 5.29096 2.40683L6.54177 0.846229Z" fill="#DBDBDB" mask="url(#path-1-inside-1_2668_9563)"/>
</svg>
