<svg width="20" height="20" viewBox="0 0 20 20" fill="none" xmlns="http://www.w3.org/2000/svg">
<path d="M3.00627 17.2004L3.00667 17.2006C3.00667 17.2006 3.00742 17.2009 3.00874 17.2015L3.01316 17.2029C3.01456 17.2019 3.01625 17.2007 3.01823 17.1991C3.01831 17.1991 3.01838 17.199 3.01846 17.1989L11.9959 10.0087L11.9961 10.0086C11.9976 10.0073 11.9987 10.0064 11.9994 10.0056L3.00627 17.2004ZM3.00627 17.2004C3.00632 17.2004 3.00551 17.2 3.00416 17.1992M3.00627 17.2004L3.00416 17.1992M3.01799 2.8009L3.01785 2.80079C3.016 2.7993 3.0144 2.79811 3.01307 2.79717C3.00943 2.79823 3.00668 2.79945 3.0061 2.79973L2.78987 2.3489L3.00668 2.79945C3.00612 2.79972 3.00337 2.80113 3.00017 2.80339L3.01799 2.8009ZM3.01799 2.8009L11.9958 9.9915M3.01799 2.8009L11.9958 9.9915M3.00416 17.1992L3.00018 17.1967L3.00416 17.1992ZM11.9958 9.9915C11.9975 9.99283 11.9986 9.99387 11.9994 9.9946M11.9958 9.9915L11.9994 9.9946M11.9994 9.9946C11.9992 9.99366 11.999 9.99322 11.999 9.99325M11.9994 9.9946L11.999 9.99325M11.999 9.99325C11.9991 9.99356 11.9996 9.99452 12.0002 9.99545L11.999 9.99325Z" stroke="#DBDBDB" stroke-linejoin="round"/>
<path d="M16 2L16 18" stroke="#DBDBDB" stroke-linecap="round"/>
</svg>
