<svg width="20" height="20" viewBox="0 0 20 20" fill="none" xmlns="http://www.w3.org/2000/svg">
<path d="M15.7753 3C15.9359 2.99984 16.0951 3.03061 16.2436 3.09056C16.3921 3.15051 16.527 3.23846 16.6408 3.3494C16.7545 3.46033 16.8447 3.59207 16.9064 3.7371C16.968 3.88213 16.9998 4.03761 17 4.19466V11.9316C16.9998 12.0886 16.968 12.2441 16.9064 12.3892C16.8447 12.5342 16.7545 12.6659 16.6408 12.7769C16.527 12.8878 16.3921 12.9757 16.2436 13.0357C16.0951 13.0956 15.9359 13.1264 15.7753 13.1263H10.3497V14.9737H12.9747C13.1139 14.9737 13.2475 15.0277 13.3459 15.124C13.4444 15.2202 13.4997 15.3507 13.4997 15.4868C13.4997 15.6229 13.4444 15.7535 13.3459 15.8497C13.2475 15.9459 13.1139 16 12.9747 16H7.0249C6.88566 16 6.75212 15.9459 6.65367 15.8497C6.55521 15.7535 6.4999 15.6229 6.4999 15.4868C6.4999 15.3507 6.55521 15.2202 6.65367 15.124C6.75212 15.0277 6.88566 14.9737 7.0249 14.9737H9.29964V12.7502C9.29964 12.726 9.30132 12.7026 9.30468 12.6792C9.29532 12.607 9.30178 12.5338 9.32363 12.4643C9.34548 12.3947 9.38222 12.3306 9.43141 12.276C9.48059 12.2214 9.5411 12.1777 9.6089 12.1478C9.6767 12.1179 9.75025 12.1024 9.82465 12.1024H15.7753C15.8719 12.1024 15.9504 12.026 15.9504 11.9316V4.19466C15.9504 4.1722 15.9459 4.14995 15.9371 4.12921C15.9283 4.10846 15.9154 4.08961 15.8991 4.07375C15.8828 4.05789 15.8635 4.04532 15.8423 4.03676C15.821 4.0282 15.7982 4.02382 15.7753 4.02387H4.22473C4.20175 4.02382 4.17899 4.0282 4.15774 4.03676C4.13649 4.04532 4.11718 4.05789 4.10091 4.07375C4.08464 4.08961 4.07174 4.10846 4.06293 4.12921C4.05412 4.14995 4.04959 4.1722 4.04959 4.19466V11.9316C4.04959 12.026 4.12813 12.1024 4.22473 12.1024H5.50155L7.75991 8.323C7.79489 8.26462 7.84133 8.21358 7.89656 8.1728C7.95179 8.13202 8.01472 8.10231 8.08173 8.08537C8.14874 8.06843 8.21851 8.0646 8.28704 8.0741C8.35557 8.0836 8.4215 8.10624 8.48105 8.14072L8.5407 8.18095L9.91327 9.24998L10.5954 8.45149L11.1002 7.86936C11.0209 7.68131 10.9801 7.47992 10.9801 7.27654C10.9802 6.93977 11.0932 6.61232 11.3019 6.34438C11.5107 6.07643 11.8035 5.88276 12.1356 5.79306C12.4677 5.70336 12.8207 5.72258 13.1405 5.84776C13.4604 5.97294 13.7294 6.19718 13.9064 6.48612C14.0834 6.77506 14.1586 7.11275 14.1204 7.44745C14.0823 7.78215 13.9329 8.09539 13.6952 8.33915C13.4574 8.58292 13.1445 8.74378 12.8043 8.79707C12.4641 8.85035 12.1154 8.79314 11.8117 8.63418L10.8012 9.80503L10.3841 10.2927C10.2957 10.3942 10.1703 10.4581 10.0346 10.4709C9.89881 10.4837 9.76329 10.4444 9.65665 10.3613L8.36051 9.35057L6.25713 12.8725C6.21755 12.9386 6.16336 12.9951 6.09854 13.038C6.03372 13.0809 5.9599 13.1091 5.88249 13.1205L5.80353 13.1267H4.22431C3.8999 13.1269 3.58868 13.0012 3.35909 12.7771C3.1295 12.5531 3.00033 12.2491 3 11.932V4.19466C3.00017 4.03761 3.03198 3.88213 3.09361 3.7371C3.15525 3.59207 3.24551 3.46033 3.35924 3.3494C3.47296 3.23846 3.60793 3.15051 3.75643 3.09056C3.90494 3.03061 4.06406 2.99984 4.22473 3H15.7753Z" fill="#808080"/>
</svg>
