<svg width="24" height="24" viewBox="0 0 24 24" fill="none" xmlns="http://www.w3.org/2000/svg">
<path d="M20.3119 4.79998L20.3138 4.80203C22.4981 7.10498 22.3562 10.8981 20.1014 13.1895C20.1013 13.1896 20.1013 13.1897 20.1012 13.1898L12.9006 20.4773L12.9006 20.4772L12.8957 20.4824C12.739 20.6455 12.5501 20.7757 12.3402 20.8648C12.1302 20.954 11.9039 21 11.675 21C11.4461 21 11.2198 20.954 11.0099 20.8648C10.7999 20.7757 10.611 20.6455 10.4544 20.4824L10.4544 20.4824L10.4502 20.4781L3.28101 13.1899L3.27977 13.1886C1.01114 10.8985 0.877991 7.10666 3.07287 4.80284L3.0757 4.79984C3.60064 4.23968 4.23615 3.79091 4.94351 3.48134C5.65088 3.17177 6.41501 3.00802 7.18905 3.00029C7.96309 2.99256 8.73044 3.14102 9.44403 3.43642C10.1576 3.73181 10.8022 4.16783 11.3385 4.71743L11.696 5.08374L12.0539 4.71782C12.5836 4.1762 13.2183 3.74483 13.9206 3.44963C14.6228 3.15449 15.378 3.00154 16.1414 3C16.925 3.00039 17.6999 3.16059 18.4175 3.47038C19.1353 3.78025 19.7801 4.23301 20.3119 4.79998Z" stroke="#DBDBDB"/>
</svg>
