<svg width="28" height="28" viewBox="0 0 28 28" fill="none" xmlns="http://www.w3.org/2000/svg">
<path d="M19.4937 6.7996L19.4933 6.79941C19.4933 6.79941 19.4926 6.79906 19.4913 6.79855L19.4868 6.79708C19.4854 6.79806 19.4838 6.79931 19.4818 6.80088C19.4817 6.80094 19.4816 6.801 19.4815 6.80106L10.5041 13.9913L10.5039 13.9914C10.5024 13.9927 10.5013 13.9936 10.5006 13.9944C10.5005 13.9947 10.5004 13.9951 10.5004 13.9955C10.5001 13.9975 10.5 13.9992 10.5 13.9999C10.5 14.0004 10.5001 14.002 10.5004 14.004L19.4937 6.7996ZM19.4937 6.7996C19.4937 6.79958 19.4945 6.79997 19.4958 6.80076L19.4998 6.80334C19.4999 6.80503 19.5 6.80712 19.5 6.80962L19.5 21.1905C19.5 21.1929 19.4999 21.195 19.4998 21.1966L19.4937 6.7996ZM10.5006 14.0054C10.4993 14.0041 10.4992 14.0038 10.4998 14.0045C10.5004 14.0055 10.5009 14.0064 10.501 14.0067C10.501 14.0068 10.5008 14.0063 10.5006 14.0054ZM10.5006 14.0054C10.5009 14.0056 10.5012 14.0059 10.5015 14.0063C10.5022 14.0069 10.5031 14.0076 10.5041 14.0084L10.5006 14.0054ZM19.482 21.1991L10.5042 14.0085L19.4939 21.2003C19.4933 21.2005 19.4906 21.2018 19.4869 21.2028C19.4856 21.2019 19.484 21.2007 19.4821 21.1992L19.482 21.1991Z" stroke="#DBDBDB" stroke-linejoin="round"/>
<path d="M6.5 22L6.5 6" stroke="#DBDBDB" stroke-linecap="round"/>
</svg>
