<svg width="24" height="24" viewBox="0 0 24 24" fill="none" xmlns="http://www.w3.org/2000/svg">
<path d="M6.80739 7.75315L6.80738 7.75316C6.49912 8.14252 5.96839 8.27708 5.51187 8.08147C5.51185 8.08147 5.51184 8.08146 5.51182 8.08146L2.0784 6.60982C1.33529 6.2913 0.541012 6.94053 0.70531 7.73216L3.11404 19.3381C3.11405 19.3381 3.11405 19.3381 3.11405 19.3381C3.30524 20.2597 4.11737 20.9211 5.05898 20.9211H18.941C19.8825 20.9211 20.6947 20.2601 20.8859 19.3381C20.886 19.3381 20.886 19.3381 20.886 19.338L23.2947 7.73213C23.459 6.94052 22.6647 6.29129 21.9216 6.60978L18.4879 8.08146C18.4879 8.08146 18.4879 8.08147 18.4879 8.08147C18.0314 8.27708 17.5006 8.14253 17.1924 7.75316L12.784 2.18481C12.3837 1.6791 11.6163 1.67909 11.216 2.18479L6.80739 7.75315Z" stroke="#DBDBDB"/>
<path d="M9.5 13L11.576 16.3216C11.7718 16.6349 12.2282 16.6349 12.424 16.3216L14.5 13" stroke="#DBDBDB" stroke-linecap="round"/>
</svg>
