<svg width="12" height="13" viewBox="0 0 12 13" fill="none" xmlns="http://www.w3.org/2000/svg">
<path d="M8.57143 0.713867C9.51823 0.713867 10.2857 1.48135 10.2857 2.42815H10.7143C11.0553 2.42815 11.3823 2.56361 11.6234 2.80473C11.8645 3.04585 12 3.37287 12 3.71387V5.59958C12 5.94058 11.8645 6.2676 11.6234 6.50872C11.3823 6.74984 11.0553 6.8853 10.7143 6.8853H9.94286C9.91234 6.8853 9.88234 6.88255 9.8532 6.87758C9.2532 8.10672 8.08234 9.00604 6.68588 9.23078L6.68571 10.6067L7.77154 11.4451C7.83377 11.4932 7.88414 11.5549 7.91879 11.6255C7.95344 11.6961 7.97145 11.7736 7.97143 11.8523V11.9424C7.97143 12.0334 7.93531 12.1206 7.87101 12.1849C7.80671 12.2492 7.7195 12.2853 7.62857 12.2853H4.37143C4.2805 12.2853 4.19329 12.2492 4.12899 12.1849C4.06469 12.1206 4.02857 12.0334 4.02857 11.9424V11.8482C4.02859 11.7707 4.04611 11.6942 4.07983 11.6244C4.11356 11.5547 4.1626 11.4934 4.22331 11.4453L5.31429 10.5796V9.23044C3.91783 9.00587 2.7468 8.10672 2.14663 6.87758C2.12705 6.88088 2.10731 6.88312 2.08749 6.88427L2.05714 6.8853H1.28571C0.951936 6.88529 0.631242 6.75549 0.391433 6.52333C0.151625 6.29116 0.0115 5.97484 0.000685624 5.64124L0 5.59958V3.71387C2.77553e-06 3.38009 0.129807 3.05939 0.36197 2.81959C0.594132 2.57978 0.910455 2.43965 1.24406 2.42884L1.28571 2.42815H1.71429C1.71429 1.48135 2.48177 0.713867 3.42857 0.713867H8.57143ZM8.57143 1.74244H3.42857C3.25264 1.74244 3.08345 1.81006 2.95598 1.93131C2.8285 2.05256 2.75251 2.21816 2.74371 2.39387L2.74286 2.42815V4.99958C2.74286 6.79838 4.2012 8.25672 6 8.25672C7.77943 8.25672 9.22577 6.82958 9.25663 5.05752L9.25714 4.99958V2.42815C9.25714 2.25223 9.18952 2.08303 9.06828 1.95556C8.94703 1.82809 8.78142 1.75209 8.60571 1.7433L8.57143 1.74244ZM10.7143 3.45672H10.4571V5.85672H10.7143C10.7782 5.85672 10.8398 5.83291 10.8872 5.78993C10.9345 5.74696 10.9641 5.6879 10.9702 5.62427L10.9714 5.59958V3.71387C10.9714 3.64994 10.9476 3.58831 10.9046 3.541C10.8617 3.49368 10.8026 3.46406 10.739 3.45792L10.7143 3.45672ZM1.54286 3.45672H1.28571L1.26103 3.45792C1.20161 3.46362 1.14602 3.48981 1.10379 3.532C1.06157 3.57419 1.03534 3.62976 1.0296 3.68918L1.02857 3.71387V5.59958L1.02977 5.62427C1.03546 5.68369 1.06165 5.73928 1.10385 5.7815C1.14604 5.82373 1.20161 5.84996 1.26103 5.8557L1.28571 5.85672H1.54286V3.45672ZM8.6472 3.24072C8.71148 3.30502 8.74758 3.39221 8.74758 3.48312C8.74758 3.57404 8.71148 3.66123 8.6472 3.72552L7.07143 5.3013C7.0398 5.33404 7.00197 5.36016 6.96014 5.37813C6.91831 5.3961 6.87332 5.40556 6.82779 5.40595C6.78227 5.40635 6.73712 5.39767 6.69499 5.38043C6.65285 5.3632 6.61457 5.33774 6.58238 5.30555C6.55019 5.27335 6.52473 5.23507 6.50749 5.19294C6.49025 5.1508 6.48158 5.10565 6.48197 5.06013C6.48237 5.01461 6.49182 4.96962 6.50979 4.92779C6.52776 4.88596 6.55388 4.84812 6.58663 4.8165L8.1624 3.24072C8.2267 3.17645 8.31389 3.14034 8.4048 3.14034C8.49571 3.14034 8.5829 3.17645 8.6472 3.24072ZM7.59806 2.74701C7.62993 2.77885 7.65522 2.81667 7.67248 2.85829C7.68973 2.89991 7.69861 2.94452 7.69861 2.98958C7.69861 3.03464 7.68973 3.07925 7.67248 3.12088C7.65522 3.1625 7.62993 3.20031 7.59806 3.23215L6.74949 4.08072C6.71763 4.11258 6.67981 4.13785 6.63819 4.15509C6.59657 4.17233 6.55196 4.1812 6.50691 4.1812C6.46186 4.1812 6.41726 4.17233 6.37564 4.15509C6.33402 4.13785 6.2962 4.11258 6.26434 4.08072C6.23249 4.04887 6.20722 4.01105 6.18998 3.96943C6.17274 3.92781 6.16387 3.8832 6.16387 3.83815C6.16387 3.7931 6.17274 3.74849 6.18998 3.70687C6.20722 3.66525 6.23249 3.62744 6.26434 3.59558L7.11291 2.74701C7.14476 2.71513 7.18257 2.68984 7.22419 2.67259C7.26581 2.65534 7.31043 2.64645 7.35548 2.64645C7.40054 2.64645 7.44516 2.65534 7.48678 2.67259C7.5284 2.68984 7.56621 2.71513 7.59806 2.74701Z" fill="#FFC440"/>
</svg>
