<svg width="20" height="20" viewBox="0 0 20 20" fill="none" xmlns="http://www.w3.org/2000/svg">
<path d="M17 16.7656V9.00108C17 5.14051 13.8595 2 9.99892 2C6.13834 2 3 5.14268 3 9.00108V16.7656" stroke="#DBDBDB"/>
<path d="M15.0263 12.8659C14.5015 12.8659 14.0742 13.2932 14.0742 13.8181V16.6116C14.0742 17.1364 14.5015 17.5637 15.0263 17.5637H15.9936C16.5489 17.5637 17 17.1126 17 16.5573V12.8659H15.0263ZM3 12.8659V16.6029C3 17.1343 3.4316 17.5637 3.96081 17.5637H5.01921C5.52022 17.5637 5.92796 17.1559 5.92796 16.6549V13.7725C5.92796 13.2715 5.52022 12.8638 5.01921 12.8638H3V12.8659Z" stroke="#DBDBDB"/>
</svg>
