<svg width="24" height="24" viewBox="0 0 24 24" fill="none" xmlns="http://www.w3.org/2000/svg">
<path d="M20.7715 13.2285C20.3446 13.2907 19.9415 13.4643 19.603 13.7317C19.2644 13.9991 19.0022 14.3509 18.8427 14.7518C18.6684 15.1498 18.6027 15.7097 18.6523 16.1413C18.702 16.573 18.8652 16.9837 19.1253 17.3317C19.3024 17.5657 19.3898 17.8555 19.3718 18.1484C19.3538 18.4414 19.2315 18.7182 19.027 18.9287C18.7993 19.1483 18.4957 19.2715 18.1794 19.2727C17.9093 19.2754 17.646 19.1891 17.43 19.027C17.0031 18.7124 16.486 18.5444 15.9558 18.5479C15.6223 18.5469 15.1692 18.6138 14.8624 18.7445C14.4275 18.8954 14.0438 19.1654 13.7549 19.5238C13.466 19.8822 13.2836 20.3145 13.2285 20.7715C13.2285 21.0973 13.0991 21.4098 12.8687 21.6402C12.6383 21.8706 12.3258 22 12 22C11.6742 22 11.3617 21.8706 11.1313 21.6402C10.9009 21.4098 10.7715 21.0973 10.7715 20.7715C10.7093 20.3446 10.5357 19.9415 10.2683 19.603C10.0009 19.2644 9.64906 19.0022 9.24816 18.8427C8.93754 18.7104 8.48013 18.6435 8.14251 18.6462C7.61648 18.6453 7.10404 18.8132 6.68059 19.1253C6.46459 19.2873 6.20121 19.3737 5.9312 19.371C5.6149 19.3697 5.31127 19.2465 5.08354 19.027C4.87908 18.8165 4.75677 18.5396 4.73874 18.2467C4.72071 17.9537 4.80816 17.664 4.98526 17.43C5.23972 17.0793 5.39942 16.669 5.44891 16.2385C5.49841 15.8081 5.43603 15.2494 5.26781 14.8501C5.11411 14.4158 4.8414 14.0335 4.4808 13.7467C4.12021 13.46 3.68627 13.2804 3.2285 13.2285C2.90268 13.2285 2.59021 13.0991 2.35982 12.8687C2.12943 12.6383 2 12.3258 2 12C2 11.6742 2.12943 11.3617 2.35982 11.1313C2.59021 10.9009 2.90268 10.7715 3.2285 10.7715C3.65277 10.7115 4.05398 10.5417 4.39232 10.2788C4.73065 10.0159 4.99436 9.66904 5.15725 9.27273C5.33159 8.87477 5.39729 8.31485 5.34766 7.88323C5.29802 7.45161 5.13482 7.04086 4.87469 6.69287C4.6976 6.45882 4.61015 6.1691 4.62818 5.87615C4.6462 5.58321 4.76852 5.30639 4.97297 5.09582C5.0861 4.97381 5.22284 4.87605 5.37488 4.80848C5.52693 4.7409 5.69112 4.70491 5.85749 4.7027C6.1275 4.70002 6.39087 4.78637 6.60688 4.9484C7.03371 5.263 7.55086 5.43107 8.08108 5.42752C8.41044 5.42688 8.93286 5.36004 9.23587 5.23096C9.64899 5.06725 10.01 4.79456 10.2804 4.44194C10.5508 4.08931 10.7205 3.66995 10.7715 3.2285C10.7715 2.90268 10.9009 2.59021 11.1313 2.35982C11.3617 2.12943 11.6742 2 12 2C12.3258 2 12.6383 2.12943 12.8687 2.35982C13.0991 2.59021 13.2285 2.90268 13.2285 3.2285C13.2907 3.65544 13.4643 4.05846 13.7317 4.39704C13.9991 4.73562 14.3509 4.99781 14.7518 5.15725L14.9583 5.23096C15.2689 5.36331 15.5199 5.35651 15.8575 5.35381C16.3835 5.35471 16.896 5.18677 17.3194 4.87469C17.5354 4.71266 17.7988 4.62631 18.0688 4.62899C18.3851 4.63025 18.6887 4.75346 18.9165 4.97297C19.1209 5.18354 19.2432 5.46036 19.2613 5.7533C19.2793 6.04625 19.1918 6.33597 19.0147 6.57002C18.7603 6.92067 18.6006 7.33104 18.5511 7.76145C18.5016 8.19186 18.564 8.62777 18.7322 9.02703C18.8859 9.46133 19.1586 9.96652 19.5192 10.2533C19.8798 10.54 20.3137 10.7196 20.7715 10.7715C21.0973 10.7715 21.4098 10.9009 21.6402 11.1313C21.8706 11.3617 22 11.6742 22 12C22 12.3258 21.8706 12.6383 21.6402 12.8687C21.4098 13.0991 21.0973 13.2285 20.7715 13.2285Z" stroke="#808080"/>
<path d="M10.6349 14.0429C11.039 14.3129 11.514 14.457 12 14.457C12.6516 14.457 13.2766 14.1981 13.7373 13.7373C14.1981 13.2766 14.457 12.6516 14.457 12C14.457 11.514 14.3129 11.039 14.0429 10.6349C13.7729 10.2309 13.3892 9.91596 12.9402 9.73C12.4913 9.54403 11.9972 9.49538 11.5206 9.59018C11.044 9.68498 10.6062 9.91899 10.2626 10.2626C9.91899 10.6062 9.68498 11.044 9.59018 11.5206C9.49538 11.9972 9.54403 12.4913 9.73 12.9402C9.91596 13.3892 10.2309 13.7729 10.6349 14.0429Z" stroke="#808080"/>
</svg>
