<svg width="20" height="20" viewBox="0 0 20 20" fill="none" xmlns="http://www.w3.org/2000/svg">
<path d="M9.02401 0.92545L9.024 0.925455L2.77379 4.11606C2.77375 4.11608 2.77371 4.1161 2.77367 4.11612C2.39016 4.31206 2.06826 4.61016 1.8435 4.97751C1.61872 5.3449 1.49984 5.76727 1.5 6.19797L1.5 6.19816L1.5 13.7554C1.5 13.7554 1.5 13.7555 1.5 13.7555C1.50015 14.1836 1.6179 14.6035 1.84041 14.9692C2.06295 15.335 2.38171 15.6327 2.76189 15.8296L2.76198 15.8297L9.01112 19.0687C9.34679 19.2426 9.71962 19.3324 10.0976 19.3305C10.4756 19.3285 10.8475 19.2349 11.1814 19.0577L11.1815 19.0576L17.2594 15.833C17.634 15.634 17.9475 15.3368 18.166 14.9731C18.3846 14.6095 18.5001 14.1932 18.5 13.769V13.7689V6.18372V6.18364C18.5001 5.75692 18.3833 5.33833 18.1623 4.97327C17.9414 4.60827 17.6248 4.31071 17.2468 4.11287L9.02401 0.92545ZM9.02401 0.92545C9.35635 0.755785 9.7245 0.668174 10.0976 0.669948C10.4708 0.671722 10.838 0.762817 11.1687 0.935613C11.1688 0.935624 11.1688 0.935636 11.1688 0.935647L17.2466 4.11278L9.02401 0.92545Z" stroke="#DBDBDB"/>
<path d="M8.23223 8.23223C8.70107 7.76339 9.33696 7.5 10 7.5C10.663 7.5 11.2989 7.76339 11.7678 8.23223C12.2366 8.70107 12.5 9.33696 12.5 10C12.5 10.663 12.2366 11.2989 11.7678 11.7678C11.2989 12.2366 10.663 12.5 10 12.5C9.33696 12.5 8.70107 12.2366 8.23223 11.7678C7.76339 11.2989 7.5 10.663 7.5 10C7.5 9.33696 7.76339 8.70107 8.23223 8.23223Z" stroke="#DBDBDB"/>
</svg>
