<svg width="24" height="24" viewBox="0 0 24 24" fill="none" xmlns="http://www.w3.org/2000/svg">
<circle cx="12" cy="12" r="11.5" stroke="#DBDBDB"/>
<path d="M14.6995 8L17 8.0045L8.438 18.5H7.861V8.876H7V8.0045H10.438V13.0625L14.6995 8Z" fill="#DBDBDB"/>
<path d="M13.57 14.1192L13.9794 15.0218L13.0193 14.9982L12.613 14.0948L13.57 14.1192ZM13.9658 18.3757L13.4929 18.3656C13.4057 18.3647 13.3197 18.3454 13.2406 18.3089C13.1616 18.2741 13.0963 18.2261 13.0373 18.163C12.9792 18.1031 12.9354 18.033 12.902 17.9504C12.8693 17.8709 12.855 17.7836 12.8573 17.6957L12.9026 15.9069L12.5612 15.8986L12.5754 15.3171L12.9168 15.3254L13.7217 15.3462L13.7352 15.3463L13.6776 17.669C13.6764 17.7197 13.6935 17.7626 13.7296 17.801C13.765 17.8361 13.81 17.8555 13.8607 17.8567L14.2092 17.8666L13.9658 18.3757ZM17.63 14.8025L16.2944 14.7688L16.249 16.5575L17.713 16.5939L17.6988 17.1754L16.2348 17.139L16.2045 18.4334L15.3862 18.4126L15.4204 17.1205L13.9263 17.0847L13.9405 16.5032L15.4346 16.539L15.48 14.7503L14.1174 14.7163L14.1316 14.1348L17.6481 14.2235L17.63 14.8025ZM17.7467 15.0634L17.3388 16.3246L16.4864 16.3019L16.8943 15.0406L17.7467 15.0634ZM14.0243 15.0547L14.8799 15.0766L15.2324 16.272L14.38 16.2492L14.0243 15.0547Z" fill="#DBDBDB"/>
</svg>
