<svg width="28" height="28" viewBox="0 0 28 28" fill="none" xmlns="http://www.w3.org/2000/svg">
<g clip-path="url(#clip0_4394_29497)">
<path d="M18.578 20.4215L20.8727 9.59382C21.0757 8.63927 20.5291 8.26573 19.9036 8.49991L6.40628 13.7028C5.48419 14.0617 5.5001 14.5778 6.25037 14.812L9.70328 15.89L17.7215 10.843C18.0963 10.5929 18.4406 10.7342 18.1593 10.9843L11.6728 16.8426L11.4227 20.4063C11.558 20.4068 11.6916 20.3761 11.813 20.3165C11.9344 20.2569 12.0404 20.17 12.1227 20.0626L13.8097 18.438L17.3097 21.0159C17.9506 21.3748 18.4036 21.1877 18.5755 20.4222L18.578 20.4215ZM28 14C28 16.7689 27.1789 19.4757 25.6406 21.778C24.1022 24.0803 21.9157 25.8747 19.3576 26.9343C16.7994 27.9939 13.9845 28.2712 11.2687 27.731C8.55301 27.1908 6.05845 25.8574 4.10051 23.8995C2.14258 21.9416 0.809205 19.447 0.269012 16.7313C-0.271181 14.0155 0.00606593 11.2006 1.06569 8.64243C2.12532 6.08427 3.91973 3.89777 6.22202 2.35943C8.52431 0.821086 11.2311 0 14 0C17.713 0 21.274 1.475 23.8995 4.10051C26.525 6.72601 28 10.287 28 14Z" fill="white"/>
</g>
<defs>
<clipPath id="clip0_4394_29497">
<rect width="28" height="28" fill="white"/>
</clipPath>
</defs>
</svg>
