<svg width="20" height="20" viewBox="0 0 20 20" fill="none" xmlns="http://www.w3.org/2000/svg">
<path d="M13.6527 17.6542C12.685 18.1252 11.6406 18.4045 10.5748 18.4795L10.5763 18.4657L10.0231 18.4616C9.41876 18.4571 8.81646 18.3881 8.22606 18.2558L8.22607 18.2557L8.2208 18.2546C7.09812 18.0157 6.03449 17.5457 5.09501 16.8731C4.15575 16.2005 3.3602 15.3393 2.75743 14.3417C1.64686 12.4889 1.25238 10.2796 1.65222 8.14507C2.05207 6.01051 3.217 4.10656 4.917 2.80307C5.64254 2.2487 6.45146 1.8188 7.31189 1.53L7.31189 1.53001L7.315 1.52894C7.41326 1.49524 7.51857 1.49091 7.61894 1.51629C7.71938 1.54169 7.81191 1.59613 7.88506 1.67461L7.88505 1.67462L7.8868 1.67647C7.9575 1.75155 8.00685 1.84655 8.02788 1.95091C8.04891 2.05525 8.0405 2.1635 8.00389 2.26279C7.51177 3.59266 7.53634 5.06352 8.07272 6.37567C8.43443 7.26401 9.01593 8.04295 9.76171 8.63609C10.5075 9.22929 11.3921 9.6163 12.3297 9.75852C13.2672 9.90075 14.2248 9.79317 15.109 9.44658C15.9931 9.10001 16.7731 8.52655 17.3737 7.78302L17.3738 7.78305L17.3781 7.77751C17.4411 7.69721 17.5246 7.63853 17.6175 7.60709C17.7103 7.57567 17.8097 7.57238 17.9041 7.59747L17.9041 7.59755L17.913 7.59975C18.0146 7.62474 18.1081 7.67984 18.1814 7.75976C18.2548 7.83978 18.3046 7.9411 18.3231 8.05157L18.3245 8.05947L18.326 8.06732C18.5799 9.32896 18.5556 10.6324 18.255 11.8833C17.9545 13.1341 17.3852 14.3005 16.589 15.2985C15.7928 16.2964 14.7898 17.1008 13.6527 17.6542Z" stroke="#DBDBDB"/>
</svg>
