<svg width="28" height="28" viewBox="0 0 28 28" fill="none" xmlns="http://www.w3.org/2000/svg">
<path d="M26.2067 11.7629C23.8465 11.7635 21.5492 11.0709 19.6564 9.788V18.7331C19.6564 23.3001 15.7582 27 10.9483 27C6.13837 27 2.24023 23.3001 2.24023 18.7331C2.24023 14.165 6.13837 10.4651 10.9483 10.4651C11.4291 10.4651 11.8961 10.5036 12.352 10.5748V15.3124C11.9164 15.1582 11.453 15.0792 10.9856 15.0796C8.83899 15.0796 7.09738 16.73 7.09738 18.7682C7.09738 20.8052 8.83899 22.4579 10.9856 22.4579C13.1284 22.4579 14.8688 20.8052 14.8688 18.7682V1H19.7259C19.7259 4.41504 22.6427 7.18348 26.2402 7.18348V11.7606L26.2067 11.7629Z" fill="white"/>
</svg>
