<svg width="24" height="22" viewBox="0 0 24 22" fill="none" xmlns="http://www.w3.org/2000/svg">
<path d="M12.1768 1.0127L12.2803 1.05078L21.2441 6.03613L21.2637 6.0459C21.3517 6.08993 21.4452 6.22617 21.4453 6.37793C21.4453 6.49063 21.3831 6.62217 21.2148 6.73633L12.2607 11.7158L12.2432 11.7256L12.2266 11.7373C12.1687 11.7759 12.1272 11.791 12.0459 11.791C11.9644 11.791 11.9223 11.776 11.8643 11.7373L11.8477 11.7256L11.8301 11.7158L2.84961 6.72168C2.77283 6.6773 2.74437 6.63665 2.72852 6.60352C2.70862 6.56191 2.69141 6.49395 2.69141 6.37793C2.69148 6.26623 2.75206 6.13492 2.91699 6.02148L11.8564 1.05078C11.9573 1.00038 12.0701 0.987398 12.1768 1.0127Z" stroke="#84838F"/>
<path d="M23 10.2285L12.4583 16.3702C12.3208 16.4618 12.1375 16.5077 12 16.5077C11.8625 16.5077 11.6792 16.4618 11.5417 16.3702L1 10.2285" stroke="#84838F"/>
<path d="M1 14.3535L11.5417 20.4952C11.6792 20.5868 11.8625 20.6327 12 20.6327C12.1375 20.6327 12.3208 20.5868 12.4583 20.4952L23 14.3535" stroke="#84838F"/>
</svg>
