<svg width="28" height="28" viewBox="0 0 28 28" fill="none" xmlns="http://www.w3.org/2000/svg">
<path d="M23.714 17.3611C22.73 16.384 21.3944 15.8339 20.0005 15.8337L23.714 17.3611ZM23.714 17.3611C24.6979 18.3381 25.2497 19.662 25.25 21.0413M23.714 17.3611L25.25 21.0413M25.25 21.0413C25.25 21.0414 25.25 21.0414 25.25 21.0415M25.25 21.0413V21.0415M25.25 21.0415V25.9844C25.25 26.0531 25.2225 26.1201 25.172 26.1703C25.1212 26.2207 25.0513 26.25 24.9772 26.25H3.02276C2.94873 26.25 2.87879 26.2207 2.82803 26.1703C2.77745 26.1201 2.75 26.0531 2.75 25.9844V21.0415C2.75 21.0414 2.75 21.0414 2.75 21.0413C2.75027 19.662 3.30214 18.3381 4.28598 17.3611C5.27 16.384 6.60564 15.8339 7.99949 15.8337C7.99953 15.8337 7.99957 15.8337 7.99962 15.8337H20.0004L25.25 21.0415ZM14.0839 1.75C15.6227 1.75 17.0974 2.35707 18.1839 3.43599C19.2702 4.51473 19.8795 5.97671 19.8795 7.5C19.8795 9.02329 19.2702 10.4853 18.1839 11.564C17.0974 12.6429 15.6227 13.25 14.0839 13.25C12.5451 13.25 11.0704 12.6429 9.98387 11.564C8.89755 10.4853 8.28823 9.0233 8.28823 7.5C8.28823 5.97671 8.89755 4.51473 9.98387 3.43599C11.0704 2.35707 12.5451 1.75 14.0839 1.75Z" stroke="#DBDBDB" stroke-width="1.5"/>
</svg>
