<svg width="24" height="24" viewBox="0 0 24 24" fill="none" xmlns="http://www.w3.org/2000/svg">
<path d="M13.4317 10.2344C13.0876 10.5785 12.8984 11.0313 12.8984 11.5122V12.2326C12.8984 12.7136 13.0876 13.1663 13.4317 13.5105C13.7758 13.8546 14.2286 14.0437 14.7095 14.0437H20.9999V9.70117H14.7095C14.2286 9.70117 13.7738 9.89033 13.4317 10.2344ZM15.45 11.0675C15.8947 11.0675 16.255 11.4277 16.255 11.8724C16.255 12.3172 15.8947 12.6774 15.45 12.6774C15.0053 12.6774 14.6451 12.3172 14.6451 11.8724C14.6451 11.4277 15.0053 11.0675 15.45 11.0675Z" fill="#DBDBDB"/>
<path d="M18.549 4H5.45299C4.10073 4 3 5.09871 3 6.45299V17.2912C3 18.6435 4.09871 19.7442 5.45299 19.7442H18.547C19.8993 19.7442 21 18.6455 21 17.2912V15.0495H14.7096C13.1601 15.0495 11.8923 13.7818 11.8923 12.2323V11.5119C11.8923 9.96244 13.1601 8.69469 14.7096 8.69469H21V6.45299C21 5.10073 19.8993 4 18.549 4Z" fill="#DBDBDB"/>
</svg>
