<svg width="33" height="32" viewBox="0 0 33 32" fill="none" xmlns="http://www.w3.org/2000/svg">
<circle cx="16.5" cy="16" r="16" fill="white"/>
<path d="M11.074 10.6201C10.5175 10.6201 9.96094 10.9911 9.96094 11.5477C9.96094 12.1042 10.5175 12.4752 11.074 12.4752C11.6305 12.4752 12.0015 12.1042 12.0015 11.5477C12.0015 10.9679 11.6305 10.6201 11.074 10.6201ZM18.6102 15.9998C18.2392 15.9998 17.8914 16.394 17.8914 16.7419C17.8914 17.1361 18.2624 17.4839 18.6102 17.4839C19.1667 17.4839 19.5377 17.1129 19.5377 16.7419C19.5377 16.3708 19.1667 15.9998 18.6102 15.9998ZM16.2218 12.4752C16.7783 12.4752 17.1493 12.081 17.1493 11.5477C17.1493 10.9911 16.7783 10.6201 16.2218 10.6201C15.6653 10.6201 15.1088 10.9911 15.1088 11.5477C15.1088 12.1042 15.6653 12.4752 16.2218 12.4752ZM22.645 15.9998C22.274 15.9998 21.9262 16.394 21.9262 16.7419C21.9262 17.1361 22.2972 17.4839 22.645 17.4839C23.2015 17.4839 23.5725 17.1129 23.5725 16.7419C23.5725 16.3708 23.2015 15.9998 22.645 15.9998Z" fill="#28C445"/>
<path d="M16.5 0C7.66522 0 0.5 7.16522 0.5 16C0.5 24.8348 7.66522 32 16.5 32C25.3348 32 32.5 24.8348 32.5 16C32.5 7.16522 25.3348 0 16.5 0ZM13.4623 20.1043C12.5348 20.1043 11.7928 19.9188 10.9116 19.7101L8.36087 21.0087L9.07971 18.7594C7.24783 17.4609 6.13478 15.7681 6.13478 13.7507C6.13478 10.2029 9.45072 7.42029 13.4623 7.42029C17.0565 7.42029 20.2333 9.64638 20.8594 12.6377C20.6275 12.6145 20.3957 12.5913 20.1638 12.5913C16.6855 12.6377 13.9493 15.258 13.9493 18.5043C13.9493 19.0377 14.042 19.5478 14.1812 20.058C13.9493 20.0812 13.6942 20.1043 13.4623 20.1043ZM24.3145 22.7014L24.871 24.5565L22.8768 23.4435C22.158 23.629 21.4159 23.8145 20.6739 23.8145C17.1725 23.8145 14.413 21.4029 14.413 18.4116C14.3899 15.4435 17.1493 13.0319 20.6275 13.0319C23.9435 13.0319 26.8652 15.4667 26.8652 18.4348C26.8652 20.1043 25.7754 21.5884 24.3145 22.7014Z" fill="#28C445"/>
</svg>
