<svg width="28" height="28" viewBox="0 0 28 28" fill="none" xmlns="http://www.w3.org/2000/svg">
<path d="M27.4151 8.25353C27.2558 7.6599 26.9434 7.11851 26.5092 6.68354C26.075 6.24857 25.5341 5.93528 24.9407 5.77501C22.7557 5.18701 14 5.18701 14 5.18701C14 5.18701 5.24326 5.18701 3.05926 5.7719C2.46547 5.93153 1.92414 6.24459 1.48963 6.67965C1.05512 7.1147 0.742736 7.65643 0.583852 8.25042C-1.91232e-07 10.4375 0 15.0005 0 15.0005C0 15.0005 -1.91232e-07 19.5635 0.583852 21.7464C0.743215 22.3402 1.05576 22.8816 1.49019 23.3166C1.92463 23.7516 2.46571 24.0648 3.05926 24.2249C5.24326 24.8129 14 24.8129 14 24.8129C14 24.8129 22.7567 24.8129 24.9407 24.2249C25.5344 24.0652 26.0756 23.7521 26.5099 23.3171C26.9442 22.882 27.2564 22.3403 27.4151 21.7464C28 19.5624 28 15.0005 28 15.0005C28 15.0005 28 10.4375 27.4151 8.25353ZM11.2187 19.188V10.8129L18.4686 14.9683L11.2197 19.188H11.2187Z" fill="white"/>
</svg>
