<svg width="24" height="24" viewBox="0 0 24 24" fill="none" xmlns="http://www.w3.org/2000/svg">
<path d="M22.3375 19.6681H20.953V21V22.095L20.1255 21.3778L18.1411 19.6579H13.666C13.3635 19.6579 13.0694 19.5431 12.8492 19.3322C12.6283 19.1207 12.5 18.8291 12.5 18.5202V12.6378C12.5 12.3289 12.6283 12.0372 12.8492 11.8257C13.0694 11.6148 13.3635 11.5 13.666 11.5H22.334C22.6364 11.5 22.9305 11.6148 23.1507 11.8257C23.3716 12.0372 23.4999 12.3289 23.4999 12.6378V18.5166C23.5018 18.6685 23.4725 18.8188 23.4142 18.9588L22.9544 18.7673L23.4142 18.9588C23.3554 19.1001 23.2684 19.2275 23.1595 19.334C23.0507 19.4404 22.9221 19.524 22.7817 19.581C22.6413 19.6379 22.4912 19.6674 22.34 19.6681V19.6681H22.3375Z" stroke="#DBDBDB"/>
<path d="M3.12214 17.178H5.81414V19.918V21.0449L6.64965 20.2887L10.1068 17.16H17.8101C18.2419 17.16 18.656 16.9885 18.9613 16.6832C19.2666 16.3779 19.4381 15.9638 19.4381 15.532V5.128C19.4381 4.69623 19.2666 4.28214 18.9613 3.97683C18.656 3.67152 18.2419 3.5 17.8101 3.5H3.12814C2.69637 3.5 2.28228 3.67152 1.97697 3.97683C1.67166 4.28214 1.50014 4.69623 1.50014 5.128V15.5284C1.4973 15.7421 1.53659 15.9544 1.61579 16.153C1.69552 16.353 1.81412 16.5351 1.96471 16.6889C2.11531 16.8428 2.29492 16.9652 2.49315 17.0491C2.69137 17.1331 2.90428 17.1769 3.11955 17.178H3.12214Z" fill="#0F0F0F" stroke="#DBDBDB"/>
<circle cx="18" cy="6" r="6" fill="#F23645"/>
<path d="M15.7528 10V9.3608L18.1534 6.73295C18.4351 6.42519 18.6671 6.15767 18.8494 5.9304C19.0317 5.70076 19.1667 5.48532 19.2543 5.28409C19.3442 5.08049 19.3892 4.86742 19.3892 4.64489C19.3892 4.3892 19.3277 4.16785 19.2045 3.98082C19.0838 3.7938 18.9181 3.64938 18.7074 3.54759C18.4967 3.44579 18.2599 3.39489 17.9972 3.39489C17.7178 3.39489 17.474 3.45289 17.2656 3.56889C17.0597 3.68253 16.8999 3.84233 16.7862 4.0483C16.675 4.25426 16.6193 4.49574 16.6193 4.77273H15.7812C15.7812 4.34659 15.8795 3.97254 16.076 3.65057C16.2725 3.3286 16.54 3.07765 16.8786 2.89773C17.2195 2.7178 17.6018 2.62784 18.0256 2.62784C18.4517 2.62784 18.8293 2.7178 19.1584 2.89773C19.4875 3.07765 19.7455 3.32031 19.9325 3.62571C20.1196 3.93111 20.2131 4.27083 20.2131 4.64489C20.2131 4.91241 20.1645 5.17401 20.0675 5.42969C19.9728 5.683 19.8071 5.96591 19.5703 6.27841C19.3359 6.58854 19.0104 6.96733 18.5938 7.41477L16.9602 9.16193V9.21875H20.3409V10H15.7528Z" fill="white"/>
</svg>
